<?xml version="1.0" encoding="UTF-8" standalone="no"?>
<!-- Created with Inkscape (http://www.inkscape.org/) -->

<svg
   width="210mm"
   height="297mm"
   viewBox="0 0 210 297"
   version="1.1"
   id="svg5"
   inkscape:version="1.1.2 (b8e25be833, 2022-02-05)"
   sodipodi:docname="bg-prueba2.svg"
   xmlns:inkscape="http://www.inkscape.org/namespaces/inkscape"
   xmlns:sodipodi="http://sodipodi.sourceforge.net/DTD/sodipodi-0.dtd"
   xmlns="http://www.w3.org/2000/svg"
   xmlns:svg="http://www.w3.org/2000/svg">
  <sodipodi:namedview
     id="namedview7"
     pagecolor="#505050"
     bordercolor="#eeeeee"
     borderopacity="1"
     inkscape:pageshadow="0"
     inkscape:pageopacity="0"
     inkscape:pagecheckerboard="0"
     inkscape:document-units="mm"
     showgrid="false"
     inkscape:zoom="0.74029882"
     inkscape:cx="292.44947"
     inkscape:cy="570.04008"
     inkscape:window-width="1920"
     inkscape:window-height="1017"
     inkscape:window-x="-8"
     inkscape:window-y="-8"
     inkscape:window-maximized="1"
     inkscape:current-layer="layer1" />
  <defs
     id="defs2">
    <inkscape:path-effect
       effect="spiro"
       id="path-effect2621"
       is_visible="true"
       lpeversion="1" />
    <inkscape:path-effect
       effect="spiro"
       id="path-effect2617"
       is_visible="true"
       lpeversion="1" />
    <inkscape:path-effect
       effect="spiro"
       id="path-effect2613"
       is_visible="true"
       lpeversion="1" />
    <inkscape:path-effect
       effect="spiro"
       id="path-effect2609"
       is_visible="true"
       lpeversion="1" />
    <inkscape:path-effect
       effect="spiro"
       id="path-effect2564"
       is_visible="true"
       lpeversion="1" />
    <inkscape:path-effect
       effect="spiro"
       id="path-effect1327"
       is_visible="true"
       lpeversion="1" />
    <inkscape:path-effect
       effect="spiro"
       id="path-effect1017"
       is_visible="true"
       lpeversion="1" />
    <inkscape:path-effect
       effect="spiro"
       id="path-effect1013"
       is_visible="true"
       lpeversion="1" />
    <inkscape:path-effect
       effect="spiro"
       id="path-effect1009"
       is_visible="true"
       lpeversion="1" />
    <clipPath
       clipPathUnits="userSpaceOnUse"
       id="clipPath2272">
      <path
         id="path2274"
         style="fill:#ff0000;fill-opacity:1;fill-rule:nonzero;stroke:none;stroke-width:0.264583"
         d="M -68.36482,-29.859676 V 156.91858 c 0.149204,-0.0397 0.304184,-0.0729 0.449586,-0.1173 1.299482,-0.39719 2.480259,-0.53595 3.674194,-0.5302 1.54109,-0.21078 3.670933,-0.47539 5.261176,-0.4563 0.535133,0.006 1.00874,0.0451 1.377696,0.12867 0.968558,0.21933 2.825864,0.76054 4.634857,1.48311 1.796259,-0.3729 2.967472,-0.35218 4.936652,-0.42219 1.409761,0.60452 2.922775,1.01825 4.291727,1.69808 1.129977,-0.3889 2.211437,-0.67115 3.035474,-0.68522 1.855708,-0.0317 3.740436,0.15419 5.530927,0.64285 0.555771,0.15168 1.108128,0.35406 1.636078,0.60565 0.510439,-0.1461 1.026533,-0.26662 1.548225,-0.35347 1.435431,-0.23896 2.839855,0.63772 4.259688,0.95653 0.557464,0.53048 1.137838,1.03932 1.716691,1.54978 0.570519,-0.79425 1.220552,-1.41938 2.100131,-1.36271 3.246171,0.20913 5.883536,2.74247 8.797395,4.22042 1.977612,-2.19745 2.316436,-0.66103 9.1694662,4.74596 0.2688815,0.21214 0.03071,0.68432 0.03359,1.02681 2.646e-4,0.032 -0.010155,0.65875 -0.019121,1.20044 0.044631,0.12214 0.081527,0.22425 0.093534,0.28939 0.2159797,1.1717 0.2825107,1.56592 0.3219442,2.00453 3.0325644,-0.83329 2.8764472,-0.7381 3.1098877,2.60862 -0.015168,0.63133 -0.016338,1.26313 -0.045475,1.89395 -0.00189,0.041 -0.00522,0.082 -0.00723,0.12299 0.5469875,0.65677 0.6102955,1.76272 0.8077026,3.7207 0.1128086,1.17239 0.3564915,2.3279 0.4898926,3.49746 0.1236399,1.08398 0.22429356,2.17068 0.32349445,3.25717 0.0683121,0.74818 0.18738422,1.49512 0.17931723,2.24637 -0.0320038,2.98022 -0.16126177,3.05946 -0.71881918,5.57795 -1.9629083,3.45734 -2.4445823,5.64474 -7.2538209,4.76199 -3.5995549,2.68163 -8.5886909,0.55219 -9.0449249,-5.93245 -1.048312,-0.12513 -2.102475,-0.50283 -3.151229,-0.64751 -1.510433,-1.83121 -3.217335,-3.51659 -4.53099,-5.49372 -0.587298,-0.88392 -0.711729,-2.00001 -1.103291,-2.98638 -0.0029,-0.007 -0.0059,-0.0144 -0.0088,-0.0217 -1.998861,-0.12199 -3.964999,-0.57211 -5.704044,-1.51154 -2.314887,-1.25048 -3.577569,-2.23378 -4.736661,-3.41736 -2.982677,-0.30988 -6.094754,-0.78664 -8.63048,-1.99677 -0.896726,-0.42796 -1.772161,-0.91485 -2.609663,-1.45883 -1.268023,-0.35747 -2.555851,-0.78716 -3.913454,-1.22628 -0.557234,-0.18024 -1.101799,-0.39445 -1.640727,-0.62374 -0.344543,0.0389 -0.68961,0.0642 -1.02526,0.0842 -2.274192,0.1359 -8.017904,-0.28907 -10.661364,-1.12345 -0.364728,-0.11512 -0.726184,-0.24049 -1.085723,-0.37155 -0.564489,-0.0648 -1.214634,-0.14498 -1.888257,-0.23875 v 173.5946 H 69.290863 c -0.531593,-0.40849 -1.058445,-0.82219 -1.585434,-1.23557 -0.02043,-0.003 -0.03732,-0.004 -0.05788,-0.007 -1.509098,-0.19145 -4.265266,0.58804 -4.470011,-0.91932 -0.07396,-0.54454 -0.136001,-1.08998 -0.192754,-1.63557 -0.393695,-0.26938 -0.782746,-0.54798 -1.185455,-0.80047 -2.046626,0.59295 -3.944093,-2.19488 -5.261695,-5.99292 -0.0095,-0.0103 -0.02273,-0.0228 -0.03204,-0.0331 -0.507463,-0.55825 -0.861319,-1.20685 -1.136364,-1.90323 0.0223,0.34152 -0.01781,0.0978 -0.05271,-0.13642 0.01714,0.0455 0.0349,0.0908 0.05271,0.13589 -0.01929,-0.29493 -0.03844,-0.77203 -0.04702,-1.2976 -0.06916,-0.0551 -0.137332,-0.11147 -0.20619,-0.1669 0.142994,0.93081 0.168471,1.11186 0.200504,1.32705 -0.187196,-0.497 -0.335796,-1.01719 -0.470771,-1.54668 -0.119176,-0.0974 -0.240937,-0.19174 -0.359153,-0.29043 -0.554223,-0.46265 -0.708623,-1.12845 -0.701765,-1.87637 -0.852408,-2.94688 -1.188662,-5.54215 -0.888317,-8.25376 -0.0057,-0.76626 -0.0011,-1.86632 5.29e-4,-1.97196 -0.0047,-2.5703 0.24302,-3.49322 1.376143,-5.73403 -0.366999,-3.66884 -0.09836,-5.94437 0.639238,-7.19024 -2.181249,-0.009 -4.362495,-0.0196 -6.543786,-0.0156 -2.571131,0.009 -5.142087,0.005 -7.713226,0.003 -0.23164,-2.7e-4 -0.463407,0 -0.695047,0 -5.003578,0.004 -5.007576,-5.05047 -0.0036,-5.05447 0.233881,-1.6e-4 0.467366,0 0.701249,0 2.567223,0.003 5.134639,0.007 7.701854,-0.003 4.928783,-0.008 9.857396,0.0385 14.786179,0.0357 1.252842,-0.008 2.507083,-0.0292 3.760494,-0.0475 0.939019,-0.32195 2.123533,-0.49705 3.183268,-0.493 0.984954,0.004 1.823022,0.14912 2.191081,0.42532 1.195835,-0.0164 2.391137,-0.0383 3.586861,-0.0439 4.240943,-0.0206 8.480277,0.0495 12.711885,0.38603 1.766528,0.0832 3.531735,0.19682 5.299419,0.25011 0.960377,0.0289 1.9217,-0.003 2.882511,-0.003 5.02118,-0.005 10.04255,-0.0281 15.06368,0.005 8.01003,0.0384 16.01972,0.0545 24.02799,-0.16176 1.68235,0.0119 3.36543,-0.009 5.04724,0.0351 5.55419,0.14605 11.09411,0.73618 16.60519,1.40613 4.43207,0.5388 4.39981,4.57978 0.81493,5.01674 1.32336,1.236 2.66381,2.47129 3.52279,4.04215 2.21637,4.05307 2.94822,7.1252 2.76314,11.21687 -0.0711,1.57271 -0.25194,3.13846 -0.37776,4.70773 -0.45143,-6.46154 0.16849,-3.55618 -4.83588,-7.7711 2.3546,6.81207 1.69494,7.41498 -3.63285,10.75748 1.55189,13.31204 3.84754,13.64602 -6.46421,13.66634 -5.6436,0.005 -11.28717,-0.003 -16.93075,-0.0151 -0.21998,0.20958 -0.8369,0.58306 -1.82779,1.18441 H 314.01237 V 82.516927 c -0.25691,0.555779 -0.54523,1.101079 -0.79119,1.659329 -0.0519,0.08715 -0.10056,0.176445 -0.15089,0.264583 -0.43712,1.032505 -0.84778,2.077252 -1.34771,3.080433 -0.51281,1.029041 -1.43885,2.223252 -2.12441,3.160533 -0.90133,1.213548 -1.88593,2.351746 -2.93008,3.441131 -0.10983,0.170907 -0.22407,0.339294 -0.32967,0.512114 -1.25952,2.060887 -1.88455,2.412413 -4.61679,4.743381 -0.34785,0.296762 -0.71366,0.681939 -1.11776,0.911569 -0.18556,0.17449 -0.37132,0.34892 -0.56481,0.5147 -0.50514,0.43279 -1.10871,0.73556 -1.65055,1.12138 -0.0286,0.0204 -0.0262,0.0675 -0.0522,0.091 -0.13303,0.11945 -0.27517,0.2294 -0.42064,0.33331 -0.52914,0.37795 -1.06825,0.7414 -1.6025,1.11208 -1.62126,1.09029 -3.36576,1.88598 -5.16297,2.63653 -1.66174,1.37682 -3.57402,2.56165 -5.52061,3.45147 -0.56761,0.25946 -1.14758,0.49075 -1.72289,0.73277 -0.48445,0.38948 -0.97179,0.77513 -1.4578,1.16272 -1.47294,0.98146 -1.2065,0.85296 -2.80292,1.71049 -0.22812,0.12255 -0.46453,0.22937 -0.69556,0.34623 0.0349,-0.009 0.0614,-0.009 0.063,0.016 0.007,0.10684 -0.16711,0.13644 -0.26202,0.18604 -1.01142,0.52944 -2.03602,1.03316 -3.05406,1.54977 -0.1815,0.0626 -0.36038,0.14425 -0.53848,0.22893 -0.27593,0.17162 -0.54951,0.34677 -0.83251,0.50643 -0.29916,0.16879 -1.4455,0.66605 -1.94924,0.88677 -1.02592,0.45263 0.23871,-0.0993 0.73899,-0.38086 0.2681,-0.15089 1.04912,-0.63617 0.76686,-0.51366 -1.6991,0.73762 -3.30512,1.68688 -5.02914,2.3642 -0.69901,0.2746 -1.4976,0.21385 -2.20348,0.47025 -0.0463,0.0117 -0.0925,0.0241 -0.13901,0.0351 -0.10184,0.0323 -0.22765,0.0706 -0.29197,0.0935 -0.0397,0.004 -0.15761,0.0212 -0.11938,0.0104 0.13555,-0.0404 0.27377,-0.071 0.41135,-0.10387 0.39317,-0.12473 0.90673,-0.27957 0.64595,-0.24081 -1.88359,0.27981 -3.72988,0.79182 -5.61929,1.02939 -0.0789,0.01 -1.50829,-0.087 -2.12855,-0.12867 -0.60749,0.0184 -1.21485,0.0298 -1.82263,0.0315 -0.22509,-0.006 -0.45032,-0.0116 -0.67541,-0.0176 -1.00445,-0.0261 -1.84384,-0.10291 -2.61225,-0.20153 -0.50337,0.28444 -1.00888,0.56475 -1.52187,0.82837 -0.0643,0.90981 -0.11812,1.82035 -0.18345,2.73007 -1.24317,0.10655 -2.48634,0.29741 -3.72949,0.4718 -0.16998,0.7795 -0.48375,1.52902 -0.70383,2.29805 -2.46206,-0.29441 -5.05114,-0.10711 -7.48791,-0.49764 -1.75923,1.27446 -4.04043,1.6515 -6.97477,0.077 -0.0915,-0.0491 -0.17775,-0.10362 -0.26148,-0.1602 -0.13004,0.11413 -0.27906,0.21043 -0.45373,0.2837 -6.72892,2.82294 -7.48304,0.25644 -9.16946,-3.05614 -2.03665,1.01553 -4.50518,0.26713 -5.96811,-2.22881 v 3.50987 c 0,5.00361 -5.05447,5.00361 -5.05447,0 v -9.63456 -5.82445 -5.06997 -0.6227 c 0,-2.31491 1.08267,-3.545208 2.24534,-3.718121 -0.30405,-0.890646 -0.19909,-1.755055 1.64021,-2.502688 0.12505,-0.05083 0.23794,-0.09271 0.35967,-0.141076 1.10653,-1.542614 2.2396,-3.021886 3.96099,-3.086635 2.65443,-0.09984 3.87701,1.298626 4.41885,3.092837 0.0558,0.07173 0.11065,0.146465 0.16434,0.223758 0.0958,-0.208309 0.19073,-0.417034 0.28112,-0.627354 1.51043,0.577834 3.01082,1.183757 4.516,1.776122 0.83725,-1.059501 1.80446,-2.032323 2.6448,-3.089736 1.63873,-0.151072 3.27363,-0.557911 4.91598,-0.453202 0.86998,0.05547 1.64958,0.571069 2.44739,0.922425 0.14206,0.06256 0.27532,0.125897 0.40463,0.189653 0.11619,-0.374499 0.23421,-0.748652 0.35605,-1.121381 0.17081,-0.522499 0.4045,-1.026345 0.67696,-1.503783 0.18941,-0.331904 0.6715,-0.526851 0.6997,-0.907955 0.081,-1.095097 -1.3008,-2.656728 -0.39067,-3.271117 4.67276,-3.154392 6.85436,-4.522584 8.18916,-4.498952 1.28112,0.02267 1.79828,1.353802 2.9745,3.591513 1.32311,-2.617251 3.98157,-7.42669 6.10918,-10.091373 0.0893,-0.219371 0.26361,-0.533376 0.36639,-0.678513 1.52488,-2.153224 3.05022,-4.314963 4.76405,-6.32106 1.51677,-1.77542 3.17496,-3.056564 5.01778,-4.133599 1.35396,-4.311919 5.44325,-7.276708 11.0226,-7.145816 3.02935,0.07107 6.50121,1.075645 10.20712,3.250446 0.53044,-0.590352 1.06439,-1.177724 1.61489,-1.749764 v -1.57613 c 0,-1.276308 0.0122,-2.552468 -0.003,-3.828707 -0.0177,-1.443206 -0.0222,-2.893345 0.076,-4.331517 0.65125,3.319632 -0.48506,-2.313212 -0.0579,-0.816488 0.45138,0.94924 -0.18137,-0.358577 -0.44905,-1.325502 -0.20526,-0.741476 -0.73247,-2.846591 -0.88212,-4.296894 -0.85667,-2.044552 -0.55478,-1.240039 -1.48519,-4.880324 -0.006,-0.02503 0.0254,0.04473 0.0382,0.06718 0.0733,0.168137 0.26826,0.681355 0.22016,0.504362 -0.89416,-3.289062 -0.34298,-0.04716 -1.17616,-4.614188 -0.20005,-1.096301 -0.23095,-3.287035 -0.26614,-4.123264 -0.004,-0.09931 0.009,0.198358 0.013,0.297656 0.14756,-0.342503 0.0377,-0.05466 -0.047,-0.944128 -0.0943,-0.990076 -0.14984,-1.993966 -0.36018,-2.96726 -0.23482,-1.135745 -0.49453,-2.333818 -0.57102,-3.464388 -0.0676,-0.999481 0.0259,-2.003301 0.0387,-3.004985 0.0813,-0.01052 0.1369,-0.0069 0.13489,-0.171049 -0.007,-0.531231 -0.0785,-1.059745 -0.11782,-1.589567 -0.0324,-0.942398 -0.0682,-1.884721 -0.0977,-2.827217 -0.003,-0.101605 0.004,0.203799 0.0185,0.304374 0.0188,0.127126 0.0885,0.504994 0.0817,0.376721 -0.0483,-0.827138 -0.26752,-1.643874 -0.33022,-2.47065 -0.19117,-1.518131 -0.56785,-3.010854 -0.85731,-4.510836 -0.0794,-0.8739013 -0.17923,-1.7460269 -0.23823,-2.6215451 -0.0204,-0.3034911 -3e-5,-0.6084263 0,-0.9126059 V 6.2482238 c -0.0249,-0.033147 -0.055,-0.061757 -0.0796,-0.095085 -2.08084,-2.8211484 -1.7862,-2.1728811 -2.4231,-3.7289713 0.17449,0.1411113 0.34319,0.2895946 0.52348,0.42323 0.0217,0.016193 0.055,0.00915 0.0786,0.022738 0.34073,0.1966029 1.32395,0.8468008 1.01235,0.6066814 -2.29669,-1.7698172 -3.88101,-2.1905764 -5.61361,-5.1784952 0.1197,0.1165329 0.46252,0.4805764 0.35914,0.3493327 -0.41029,-0.5208655 -0.60751,-0.7587075 -0.73173,-0.9007203 -0.0345,-0.02166 -0.0685,-0.044253 -0.10284,-0.066146 0.14581,0.2462479 0.44222,0.6638284 -0.0827,-0.05271 -0.26485,-0.1709405 -0.52623,-0.3483177 -0.77619,-0.5493206 -0.33848,-0.1972945 -0.6755,-0.397221 -1.01234,-0.5973794 -2.955,-1.2146137 -2.22679,-0.9170096 -3.61786,-2.4220744 -0.29269,-0.1471173 -0.60331,-0.3046389 -0.79375,-0.3911907 0.032,0.027269 0.0642,0.054355 0.0961,0.081649 0.0428,0.036493 -0.18669,-0.123712 -0.13539,-0.1007689 0.009,0.00397 0.0299,0.014848 0.0393,0.019121 -0.26983,-0.2299957 -0.54105,-0.4584332 -0.81185,-0.6872965 0.2677,0.1402123 0.79227,0.4558565 1.34101,0.7880657 -0.16761,-0.1724117 -0.35872,-0.3626837 -0.5824,-0.5782593 -0.34105,-0.1013579 -0.63579,-0.1990397 -0.85677,-0.2930054 0.0327,0.027597 0.065,0.055593 0.0977,0.083199 -0.2748,-0.1439193 -0.4217,-0.2026986 -0.49663,-0.2185913 0.28567,0.3548023 -0.23937,-0.050784 0,0 -0.0201,-0.025104 -0.0605,-0.068598 -0.0894,-0.1018024 -0.42836,-0.2208924 -0.96245,-0.5219682 -2.20607,-1.1544517 -0.10234,-0.1047202 -0.2017,-0.2123996 -0.30335,-0.3178101 -0.30078,-0.1082818 -0.76028,-0.2793381 -1.54255,-0.5705078 -0.108,-0.040196 -0.31924,-0.1406012 -0.5085,-0.2284098 -0.54631,0.037155 -1.09291,0.076124 -1.63917,0.114205 -1.44933,-0.073663 -3.12281,-0.036633 -4.56355,-0.4568197 -0.86084,-0.2510608 -1.70448,-0.5568168 -2.54868,-0.8604118 -0.12467,-0.03505 -0.26733,-0.07595 -0.34416,-0.09612 -0.5261,-0.175321 -0.32146,-0.102867 -0.62426,-0.201538 -1.28219,0.01752 -2.56437,0.03466 -3.84627,-0.0036 -0.0246,0.08985 -0.0464,0.180519 -0.0713,0.270268 -0.13193,0.475022 -0.33691,0.9262583 -0.50539,1.3895792 -5.79662,15.9407207 -18.57777,17.1004818 -23.54533,8.86922605 -1.29995,0.0941969 -2.69912,0.37717413 -3.90106,-0.12092284 -0.16892,-0.0700039 -0.34272,-0.13737135 -0.51831,-0.20463867 -1.83607,-0.31035964 -3.58088,-0.95556274 -5.13767,-2.04121904 -0.92544,-0.5138478 -1.72041,-1.1444073 -2.25413,-1.9797241 0.39305,1.6040068 0.51389,3.2813979 0.72089,4.90616043 0.63235,4.96349157 -4.32114,5.51217927 -5.02347,0.55810546 -0.23866,-1.68344879 -0.26158,-3.47214149 -0.82475,-5.09943039 -0.40707,-1.1762412 -1.02372,-2.335829 -1.52963,-3.4674887 -0.71978,-1.6449032 -0.57864,-1.128528 -0.98598,-3.6359534 -0.0936,-0.57597 -0.0355,-1.17497 -0.17105,-1.742529 -0.0905,-0.378811 -0.78763,-1.940108 -1.09864,-2.374015 -0.21142,-0.294979 -0.49445,-0.531564 -0.74156,-0.797368 -0.78722,-0.56821 -1.41842,-1.285028 -1.94872,-2.074809 l -0.22737,0.0067 c -3.41884,0.10189 0.22535,-2.585942 1.29036,-4.098975 -0.0347,-0.119996 -0.0789,-0.235379 -0.11111,-0.356567 -0.019,-0.07139 0.0561,0.136845 0.0842,0.205156 0.0433,0.0857 0.0239,0.04734 0.0558,0.110587 0.004,-0.0063 0.006,-0.01127 0.01,-0.01757 -0.12224,-0.26426 -0.22494,-0.566813 -0.37879,-0.932242 -0.20638,-0.01249 -0.46174,-0.0041 -0.79478,0.03772 -0.0724,0.0091 -0.14456,0.01786 -0.21704,0.02687 0.30968,-0.118441 0.62776,-0.190661 0.94775,-0.225826 -0.13316,-0.325414 -0.30225,-0.672758 -0.35967,-0.896069 -0.23038,-0.8959 -0.34965,-1.81506 -0.47801,-2.732651 0.008,0.06804 -0.0995,-0.318222 -0.14676,-0.468188 -0.005,-0.05649 -0.0183,-0.17 -0.0274,-0.25373 -0.0243,-0.09019 -0.0492,-0.180224 -0.0718,-0.270786 -0.11423,-0.456906 -0.19031,-0.890317 -0.28319,-1.334285 z m 273.77037,1.605071 c 0.0621,0.230325 0.12329,0.460819 0.17001,0.694531 -0.0704,-0.502801 -0.14317,-1.005237 -0.24029,-1.502752 -0.0572,-0.293176 0.0224,0.367356 0.0703,0.808221 z m 0.17001,0.694531 c 0.001,0.0092 0.003,0.01826 0.004,0.02739 -5.3e-4,-0.0055 0.009,0.03059 0.007,0.0181 -0.003,-0.01532 -0.008,-0.03019 -0.0109,-0.04547 z m 67.77313,21.3289299 c 0.11771,0.1211209 0.17039,0.1879322 0.26511,0.2904214 0.58764,0.2953872 1.13398,0.5714974 0.79994,0.3601847 -0.46995,-0.2973181 -0.72832,-0.4467338 -1.06505,-0.6506061 z M 214.78844,-29.859676 c -0.52697,0.275296 -0.68791,0.544404 -0.0491,0.799951 0.64299,0.257212 1.3002,0.45389 1.96423,0.621149 0.60729,-0.491355 1.19397,-0.957929 1.65468,-1.303279 -0.005,-0.03927 -0.01,-0.07856 -0.0145,-0.117821 z m 68.3152,0 c 0.0336,0.02604 0.0699,0.04807 0.10337,0.07441 0.20989,0.08873 0.42071,0.175498 0.62735,0.271817 0.49504,0.230761 0.95581,0.528007 1.39473,0.86093 0.10554,-0.413594 0.21891,-0.819184 0.34935,-1.207161 z m 24.13704,0 c 1.15104,2.039016 2.13153,4.468061 2.84839,7.33547 0.37788,1.511341 0.36005,1.473913 0.74208,2.857706 -0.45593,-1.455998 -1.3526,-4.119207 -0.76893,-1.498616 0.49977,2.243959 1.28463,4.414448 1.92701,6.621818 -0.053,0.525051 -0.11202,1.049875 -0.16899,1.574581 0.006,0.193201 0.0119,0.421574 0.0185,0.542086 0.0938,1.726806 -0.0622,3.0352271 -0.45836,4.482413 -0.006,0.311141 -0.0206,0.6152314 -0.0367,1.0345623 -0.0145,0.1829763 -0.0431,0.3652473 -0.0439,0.5488036 0,0.069559 0.0344,-0.2737665 0.0424,-0.2046386 0.0217,0.1946955 -8e-5,0.3921689 0,0.5880777 0,0.3413993 0.003,0.6828298 0.004,1.024227 0,0.1036508 1.3e-4,0.05012 0,0.1250569 0.22508,0.2060461 0.31821,0.2776027 0.65164,0.5891115 0.44583,0.4165031 0.89067,0.8388889 1.28209,1.3068969 0.25697,0.3072547 0.48321,0.638729 0.72914,0.9549804 V -29.859676 Z m -94.99421,0.04083 c -0.87139,-0.284263 -2.0326,4.621356 -2.54919,8.020182 0.0596,0.07786 0.13897,0.169805 0.17828,0.222209 0.27484,0.366241 0.57753,0.702602 0.89865,1.022159 0.0825,-0.441532 0.15085,-0.842041 0.262,-1.403531 0.20716,-0.562909 0.73394,-2.277902 0.62115,-1.688786 -0.20375,1.064248 -0.54262,2.098018 -0.82475,3.144511 0.0813,0.07964 0.17023,0.152993 0.25476,0.22996 0.21962,-2.104083 0.62268,-3.097093 1.83503,-4.362008 0.19063,-1.541599 0.19783,-3.064183 -0.2682,-4.54546 -0.12244,-0.389181 -0.25998,-0.59104 -0.40773,-0.639236 z m -4.18372,5.469433 c -0.0553,-0.0176 -0.0934,0.296259 -0.11214,0.683679 0.0994,0.04055 0.19828,0.08055 0.29301,0.131258 -0.034,-0.219379 -0.0635,-0.439728 -0.11317,-0.655773 -0.0237,-0.102908 -0.0465,-0.152419 -0.0677,-0.159164 z m 0.38912,0.780314 c -0.0158,0.01345 -0.0265,0.08153 -0.0413,0.109037 0.088,0.05419 0.17231,0.113251 0.25477,0.176734 -0.012,-0.03474 -0.0176,-0.0713 -0.03,-0.105937 -0.0648,-0.18082 -0.12717,-0.22771 -0.18345,-0.179834 z m 102.38703,3.93051 c 0.16822,0.538639 0.28649,0.938009 0.21498,0.751375 -0.0867,-0.226124 -0.1365,-0.464722 -0.20101,-0.698149 -0.008,-0.02768 -0.01,-0.03795 -0.014,-0.05323 z m 0.95549,6.91379 c -0.0603,0.563708 -0.11753,1.127655 -0.16018,1.69292 -0.0161,0.214698 0.0878,-0.422 0.13745,-0.631486 0.003,-0.01314 0.003,0.05428 0.003,0.04082 0.0172,-0.198859 0.0435,-0.397778 0.0455,-0.59738 0.003,-0.168239 -0.014,-0.336565 -0.0259,-0.504878 z m -46.51033,0.227376 c -0.0587,0.0021 0.61071,0.856004 0.8718,1.153935 0.45691,0.521382 1.12567,1.165876 1.8588,1.7249586 0.0453,0.00322 0.0906,0.00565 0.13589,0.0093 -0.91281,-0.9631496 -1.82308,-1.9288436 -2.79363,-2.8329026 -0.0414,-0.03857 -0.0645,-0.05559 -0.0729,-0.05529 z m -9.83971,0.224792 c 0.0568,-0.03159 0.0313,-0.02638 -0.12454,0.04082 -0.31611,0.136317 -0.62791,0.282615 -0.94051,0.426847 0.40683,-0.151247 0.93633,-0.396086 1.06505,-0.467672 z m 1.81953,1.15962 c -0.0157,1.96e-4 -0.0313,3.17e-4 -0.047,5.29e-4 0.0449,0.0176 0.0538,0.02553 0.0822,0.03462 0.11052,0.03546 0.22306,0.06466 0.33487,0.09612 -0.12342,-0.04363 -0.24629,-0.08862 -0.37001,-0.131258 z m 53.81119,0.04909 c -0.0145,-0.106709 0.0222,0.144341 0.0501,0.31936 -0.0167,-0.106399 -0.034,-0.212737 -0.0485,-0.31936 z m 0.0501,0.31936 c 0.0124,0.07819 0.0238,0.156467 0.0362,0.234612 0,-0.01161 -1.1e-4,-0.0151 -0.003,-0.02687 -0.006,-0.06985 -0.0151,-0.09385 -0.0331,-0.20774 z m -42.84646,0.419096 c -0.0491,-0.0088 0.75353,0.8643752 1.03198,1.1947591 0.19521,0.1615874 0.47585,0.4011715 0.73482,0.6227011 0.0634,0.01433 0.20387,0.052029 0.28888,0.072864 -0.47353,-0.4516615 -1.11321,-1.0456228 -1.97869,-1.8283122 -0.0458,-0.0414 -0.07,-0.06076 -0.077,-0.06201 z m 2.05568,1.8903241 c 0.018,0.017179 0.0233,0.023543 0.0408,0.040307 0.0151,0.00298 0.0314,0.010224 0.0465,0.01292 0.0541,0.010795 0.0733,0.013488 0.16227,0.032556 -0.008,-0.00949 -0.0145,-0.018291 -0.0222,-0.027905 -0.083,-0.021373 -0.16042,-0.041469 -0.22738,-0.057878 z m 0.22738,0.057878 c 0.16012,0.041226 0.20608,0.046955 0.43873,0.1111041 0.1365,0.037641 -0.18814,-0.034262 -0.41651,-0.083199 0.1066,0.1328571 0.24601,0.3003929 0.31213,0.3901573 0.21484,0.1818558 0.42932,0.3641436 0.6444,0.5457031 0.0987,0.052647 0.19663,0.1015254 0.29196,0.1400432 0.23675,0.095614 0.47699,0.1818901 0.71882,0.2635496 -0.64717,-0.6134317 -1.5078,-1.3853917 -2.72798,-2.4060547 -0.37095,-0.3103089 0.26858,0.4544054 0.73845,1.0386964 z m -0.18656,-0.017571 c -0.0954,-0.018754 -0.19439,-0.052248 -0.29247,-0.081649 0.31909,0.2720245 0.62947,0.5254355 0.98081,0.7658447 -0.17917,-0.1845141 -0.35975,-0.369883 -0.68834,-0.6841957 z m -0.29247,-0.081649 c -0.0132,-0.011276 -0.0241,-0.020307 -0.0372,-0.031523 -0.0828,-0.018706 -0.19716,-0.049554 -0.25267,-0.060462 0.0985,0.038245 0.19341,0.063062 0.2899,0.091984 z m -2.52233,-1.2045778 c -0.0282,-0.00534 -0.0798,0.00777 -0.13229,0.021704 0.0479,0.00273 0.0957,0.00711 0.14365,0.00982 0,-4.234e-4 0.006,-9.8e-6 0.006,-5.292e-4 0.006,-0.019111 -0.003,-0.028148 -0.0164,-0.031006 z m 0.47387,0.078031 c 0.12526,0.095083 0.2531,0.1829906 0.38137,0.2718181 -0.0856,-0.090066 -0.17184,-0.1795333 -0.25736,-0.2697509 -0.0329,-2.58e-4 -0.0598,-1.051e-4 -0.12401,-0.00206 z M -15.033191,74.683297 c 0.434061,-7.94e-4 1.006001,0.168389 1.764234,0.496094 0.07935,0.0063 0.15967,0.01646 0.241845,0.03255 4.3210548,0.846344 6.6734742,1.922574 7.9028768,3.303159 0,0 5.292e-4,5.29e-4 5.292e-4,5.29e-4 0.085165,0.08127 0.1570712,0.169619 0.2185914,0.266134 0.034444,0.04484 0.067915,0.08993 0.1002522,0.135393 0.019907,2.64e-4 0.037906,0.0011 0.057878,0.0016 0.1473628,0.0028 0.1664253,0.134959 0.144694,0.307991 0.1487524,0.250595 0.2691148,0.510238 0.365869,0.779283 0.08419,0.07813 0.1100833,0.179228 0.096118,0.295587 0.2555549,0.881748 0.281019,1.861873 0.2103231,2.950207 0.044595,0.04757 0.088294,0.0933 0.1333254,0.141595 0.029064,-0.0024 0.058282,-0.0042 0.087333,-0.0067 0.00294,0.03635 0.00584,0.07269 0.00878,0.109038 0.5691396,0.612666 1.1751857,1.286049 1.8174601,2.012796 0.1634726,-0.0013 0.2287289,0.09789 0.2278931,0.265099 0.98677029,1.281211 -0.2854196,3.336399 -0.3891236,4.990913 -0.3430963,5.473819 -0.1442266,3.006309 -0.6061645,7.831045 -0.5204619,3.27638 -0.4958286,4.23283 -3.2049723,3.14606 -0.2628307,0.0842 -0.630365,0.0679 -1.1404989,-0.0532 -1.2125893,0.23396 -2.2929654,0.42862 -3.251998,0.58136 -0.0085,0.008 -0.01731,0.0158 -0.02584,0.0238 -0.0064,-0.006 -0.01319,-0.0109 -0.01964,-0.0165 -0.852274,0.13512 -1.610565,0.23689 -2.283581,0.30489 -2.747029,3.44001 -7.465848,2.84611 -9.530168,-1.78387 -0.252292,-0.0569 -0.456508,-0.13082 -0.618566,-0.22738 -0.198252,-0.0163 -0.389043,-0.0334 -0.594279,-0.0491 -0.398507,-0.0305 0.04203,-0.798406 0.06615,-1.197342 0.06102,-1.00937 0.117267,-1.900193 0.170015,-2.740401 -0.02593,-0.380818 -0.03979,-0.774494 -0.03979,-1.181841 0,-0.252719 -0.0062,-0.505449 0,-0.758095 0.09547,-3.875487 0.215676,-7.752048 0.383956,-11.62513 0.01854,-0.426834 -0.35388,-1.355365 0.06666,-1.280025 1.343105,0.240631 2.667949,0.562009 3.982702,0.926042 0.516454,-1.471446 1.063577,-2.974359 1.781287,-5.00021 0.219474,-0.619498 0.01142,-2.009526 0.640271,-1.875856 0.245762,-0.740069 0.595622,-1.104101 1.235584,-1.105358 z M 302.89365,98.064815 c -0.006,0.0032 -0.0335,0.02658 -0.0863,0.07493 -0.45537,0.416859 -0.88911,0.857174 -1.32501,1.295011 0.0354,-0.02029 0.0951,-0.04633 0.12454,-0.06511 0.35015,-0.358643 1.33027,-1.327402 1.28675,-1.30483 z m -68.06251,0.289388 c 0.0519,0.270743 0.1084,0.540636 0.16588,0.810286 0.003,7.94e-4 0.005,0.0016 0.008,0.0026 0.12663,0.04306 -0.19113,-0.90388 -0.17363,-0.812871 z m 55.99968,7.872897 c -0.42474,0.16424 -0.86633,0.28754 -1.27537,0.48731 -0.38195,0.18654 0.79915,-0.28896 1.19891,-0.43356 0.0172,-0.0115 0.0556,-0.0392 0.0765,-0.0538 z m -7.5773,4.28346 c -0.26265,0.0865 -0.52496,0.17456 -0.7829,0.27389 -0.16155,0.0622 0.331,-0.10346 0.50073,-0.13746 0.0308,-0.006 -0.1061,0.0671 -0.078,0.0527 0.12052,-0.0621 0.24022,-0.12596 0.3602,-0.18914 z m -6.27972,3.84887 c -0.006,10e-4 -0.0353,0.0171 -0.0915,0.0512 -0.45902,0.27654 -0.90998,0.56672 -1.36271,0.85369 0.0101,-0.004 0.0241,-0.009 0.0331,-0.0134 0.41278,-0.2002 1.46535,-0.90073 1.42111,-0.89142 z m -17.81288,5.12423 c -0.0492,-0.007 -0.0979,-0.01 -0.14417,0.005 -0.0607,0.0201 0.14547,0.0223 0.35811,0.0207 -0.0184,-0.001 -0.0495,-0.003 -0.0661,-0.004 -0.0486,-0.003 -0.0986,-0.0144 -0.1478,-0.0217 z m -26.46453,22.89473 h 5.3e-4 5.3e-4 l 5.3e-4,5.3e-4 c 0.10802,-0.005 0.2165,-0.005 0.32504,5.3e-4 1.83147,0.0938 3.04117,0.56436 4.49533,1.46037 0.78454,0.48341 1.5293,1.02871 2.29392,1.54306 1.36362,1.17419 2.39287,2.03341 3.73621,3.3414 0.62756,0.61106 1.25948,1.22253 1.81642,1.89859 0.93021,1.12915 1.82893,2.28914 2.63757,3.50831 0.99874,1.50577 3.47257,6.47422 4.07003,7.63933 0.76716,1.8778 1.65541,4.016 2.34766,5.89111 0.23331,0.63196 0.46459,1.26729 0.63407,1.91927 0.2735,1.05214 0.51605,2.11427 0.69299,3.18688 0.20075,1.21704 -0.0574,2.48459 0.15761,3.69693 -0.017,0.9464 -0.0126,1.46558 -0.0527,2.00712 0.25247,0.33256 0.50051,0.66856 0.73846,1.01131 0.4015,0.57858 0.67156,1.23768 1.00355,1.8588 0.72876,1.36344 1.44995,2.7314 2.17868,4.09484 0.86219,1.40124 1.90834,2.66755 2.90421,3.97081 0.39437,0.0764 0.86342,0.21213 1.42524,0.42065 0.81044,0.30079 2.56754,0.77027 3.04426,1.67742 2.39858,4.56412 1.8224,3.8727 0.10025,7.79229 -0.57393,0.47448 -0.86209,0.72577 -1.14205,0.96376 -0.0206,1.55248 -0.0942,3.10433 -0.19687,4.65501 0.31602,0.23049 0.62084,0.47899 0.84283,0.79582 0.18333,0.26163 0.36063,0.52842 0.53226,0.79892 0.77459,0.25333 1.51183,0.51968 1.75287,0.62632 0.51408,0.22746 1.09487,0.4232 1.45264,0.85679 2.72378,3.30113 2.80651,2.48475 2.62154,4.12998 -0.41886,-1.11202 0.1904,0.45038 0.24702,1.55547 0.0954,1.86549 -0.55565,3.55926 -1.47693,5.1418 -0.21201,0.36424 -0.5129,0.66865 -0.76947,1.00304 -0.69392,0.57894 -1.37085,1.17921 -2.08203,1.73684 -0.10583,0.083 -0.24066,0.11972 -0.36123,0.17932 -0.10758,0.0533 -0.40495,0.24748 -0.32298,0.15968 0.63111,-0.6762 1.50566,-1.1482 1.98387,-1.93993 0.14113,-0.23365 0.21241,-0.49618 0.26199,-0.76791 -1.64579,0.047 -3.29213,0.0807 -4.93818,0.12092 -0.25662,0.52747 -0.53258,1.04632 -0.79997,1.5689 2.4e-4,0.008 0,0.0165 0,0.0248 0.0616,2.23185 -0.275,4.22293 -0.6568,6.39702 0.19401,1.29855 -0.0474,2.09623 -0.39688,3.62976 -0.11775,0.51671 -0.37211,0.99388 -0.51469,1.5043 -0.048,0.17172 -0.14802,1.06039 -0.1757,1.29294 0.17154,1.13208 0.15925,2.212 0.10645,3.3693 -0.0192,0.42102 -0.003,0.85292 -0.11679,1.25884 -0.77325,2.7689 -0.8883,2.76091 -2.03502,4.82658 -0.0828,0.68185 -0.77932,1.11466 -0.96686,1.75596 -0.0301,0.10301 0.037,0.21157 0.0553,0.3173 -0.0416,0.23967 -0.0516,0.48695 -0.12506,0.71882 -0.74374,2.34509 -0.74858,2.2208 -1.64434,4.08605 -0.59372,1.28183 -1.17149,2.56129 -1.85777,3.79719 -0.15843,0.2853 -0.3892,0.53396 -0.50178,0.84026 -0.0779,0.21186 -0.0128,0.45323 -0.0553,0.67489 -0.0809,0.42138 -0.20952,0.83239 -0.31419,1.2485 -0.51092,1.78206 -1.38543,3.4051 -2.15078,5.07928 -0.16189,0.35414 -0.27788,0.57116 -0.31677,0.93586 -0.52987,2.02508 -1.24077,4.01732 -2.43189,5.7583 -0.73438,1.07336 -1.0756,1.43584 -1.84279,2.3332 -1.10239,1.17539 -2.44292,2.05259 -3.61476,3.14556 -0.15509,0.1444 -0.32371,0.27828 -0.45424,0.44542 -0.11415,0.14618 -0.17853,0.32475 -0.27233,0.48474 -0.10446,0.17815 -0.21502,0.3528 -0.32247,0.52917 -1.15453,1.68735 -1.59282,2.23597 -2.99619,3.33105 1.53168,2.79009 -0.44276,6.663 -6.55051,7.60265 -0.54756,0.0842 -1.09991,0.14274 -1.64279,0.2532 -0.30683,0.0897 -0.61405,0.17902 -0.92088,0.26874 -1.4e-4,0.0151 0.0145,0.041 0,0.0449 -1.61057,0.43564 -2.77185,0.73028 -4.30154,0.0853 -0.57067,0.19637 -1.25486,0.22111 -1.65106,0.58447 -2.14974,0.35882 -3.46669,0 -4.88963,-1.39888 -7.9e-4,0.0291 -0.002,0.0582 -0.003,0.0873 0.003,0.003 0.006,0.004 0.009,0.006 0.0114,0.008 0.0375,0.0414 0.0274,0.0315 -0.0121,-0.0119 -0.0241,-0.0233 -0.0362,-0.0351 -0.0579,1.95543 -0.0505,3.90845 0.31885,5.842 0.93877,4.91477 -4.05604,5.6278 -5.00331,0.7147 -0.66193,-3.43218 -0.32023,-6.91891 -0.24909,-10.38128 -0.12755,-0.21301 -0.23955,-0.43584 -0.32504,-0.66661 -0.67568,-1.82663 -0.73914,-2.57395 -0.77153,-4.27056 0.0185,-0.46422 0.0247,-0.92911 0.0558,-1.39266 0.0913,-1.358 0.48033,-2.89732 0.91932,-4.16359 0.0447,-0.0959 0.0268,-0.0613 0.0501,-0.1111 -0.005,-0.0233 -0.005,-0.0482 -0.0103,-0.0713 -0.0247,0.0172 -0.0345,-0.0175 -0.0305,-0.0925 -0.0891,-0.34813 -0.22601,-0.67725 -0.45423,-0.96842 -0.89734,-1.7313 -0.64574,-0.83344 -0.0558,-3.45975 0.17129,-0.76282 0.36395,-1.09053 0.57051,-1.11929 0.36279,-0.0505 0.76823,0.86214 1.17667,1.91873 0.0525,-0.11628 0.10056,-0.23463 0.15399,-0.35036 0.30208,-0.65429 0.90358,-1.14141 1.1436,-1.83295 1.21941,0.34631 2.42768,0.74051 3.63803,1.12601 5.2e-4,-0.0938 -0.0148,-0.1764 -0.006,-0.27646 0.001,-0.007 0.004,0.0114 0.006,0.0172 0.0177,0.0912 0.035,0.18272 0.0527,0.27387 7.9e-4,2.2e-4 5.2e-4,0 0.002,0 -0.0326,-0.26754 -0.0775,-0.53316 -0.11627,-0.79994 0.0252,-0.54356 0.0277,-1.08884 0.076,-1.63092 0.0155,-0.17476 0.0713,-0.34431 0.11523,-0.51418 0.27894,-1.07832 0.71439,-2.10787 1.15859,-3.12642 l 5.3e-4,-5.3e-4 c 2.1896,-5.02081 5.86922,-6.28937 8.30699,-4.99091 0.72368,-1.47447 1.46645,-3.06001 1.9544,-3.98218 0.98483,-1.86121 2.03637,-3.68624 3.05459,-5.52938 0.70927,-1.21484 1.6216,-2.33214 2.12752,-3.64474 2.38914,-6.19855 0.0895,-2.77791 1.51154,-8.16126 0.9369,-3.54684 2.92824,-9.25988 4.69067,-12.80697 1.0736,-2.16076 2.33533,-4.22265 3.50314,-6.33398 0.4378,-0.68364 0.91254,-1.34596 1.36529,-2.02106 -0.008,-1.22799 0.61451,-2.13996 1.40354,-2.91714 0.0265,-0.17067 0.0464,-0.34137 0.0594,-0.51263 -0.021,-0.0362 -0.0421,-0.0723 -0.063,-0.10852 -0.11398,0.26976 -0.30692,0.84453 -0.27802,0.65112 0.0455,-0.30424 0.0812,-0.61426 0.11834,-0.925 -0.56308,-0.97047 -1.12839,-1.9397 -1.72083,-2.89234 -0.19029,0.0251 -0.38168,0.0464 -0.57102,0.0744 -0.0268,0.0108 -0.0539,0.0206 -0.0806,0.0315 -0.37694,0.15413 0.46053,1.39647 0.76275,1.81694 -0.13537,-0.18402 -0.41278,-0.55287 -1.00253,-1.30793 -0.44632,-0.73003 -0.93075,-1.43853 -1.33893,-2.19056 -0.20299,-0.37399 -0.33705,-0.78161 -0.4899,-1.17874 -0.47967,-1.24631 -0.89719,-2.51366 -1.26349,-3.79615 -1.38956,-2.69187 -2.59151,-5.4737 -3.46955,-8.38037 -0.0255,-0.0844 -0.0469,-0.17015 -0.0698,-0.25528 -2.61659,-1.05964 -4.04729,-5.45523 -4.76819,-7.24503 -0.20689,-0.65323 -0.3617,-1.14672 -0.53588,-1.69602 -0.69476,0.47142 -1.40225,0.92277 -2.12545,1.34668 -0.44287,0.25958 -0.69917,-0.50383 -0.92139,-1.40353 -0.004,-0.009 -0.007,-0.0141 -0.0114,-0.0227 -1.2,0.60383 -2.84203,1.39253 -4.84467,2.39883 -0.29364,0.26846 -0.593,0.52711 -0.90175,0.76584 -0.0861,0.0665 -0.14813,-0.0911 -0.21239,-0.21911 -0.17448,0.0442 -0.36073,-0.25949 -0.5333,-0.68161 -0.18669,-0.22574 -0.36932,-0.4546 -0.53227,-0.69763 -0.50056,-0.74659 -0.92879,-1.53879 -1.3932,-2.30839 -0.55887,-1.42459 -0.70106,-1.71313 -1.187,-3.37912 -0.12177,-0.41748 -0.20288,-0.8459 -0.29818,-1.27021 -0.50911,-2.26616 -1.01741,-4.52988 -1.23403,-6.84092 -0.39941,0.0392 -0.8357,-0.0709 -1.0387,-0.36381 -0.49946,-0.72075 -0.91635,-1.49046 -1.30948,-2.27427 v 1.9637 h 5.3e-4 c 0,5.00362 -5.05395,5.00362 -5.05395,0 v -11.15182 c 0,-0.31587 0.0429,-0.63425 0,-0.94722 -0.0101,-0.0736 -0.0978,-0.2137 -0.15245,-0.1633 -0.005,0.005 -0.009,0.013 -0.0119,0.0212 0.0191,0.0805 0.0381,0.16063 0.0563,0.24133 0.0179,0.0791 -0.0882,-0.15521 -0.0563,-0.24133 -0.16406,-0.69268 -0.35194,-1.38109 -0.45424,-2.08514 -0.0783,-0.53925 0.0256,-2.06478 0.0527,-2.59571 0.1652,-0.98382 0.072,-2.7201 0.0589,-2.83807 -0.003,-0.0828 -0.005,-0.16523 -0.007,-0.24804 -0.0296,-1.09413 0.20883,-1.47072 0.59687,-1.44333 h 0.001 c 1.31946,0.0933 4.36143,4.84345 4.4602,1.9265 -0.32045,0.23466 -0.6371,0.52105 -0.9648,0.67851 -0.0416,0.02 0.0765,-0.0523 0.11524,-0.0775 0.0519,-0.0338 0.10808,-0.0607 0.15709,-0.0987 0.16201,-0.12571 0.44135,-0.5078 0.49455,-0.5731 0.0863,-0.1316 0.11345,-0.17378 0.18448,-0.28318 -0.0159,-0.18288 -0.0398,-0.42413 -0.031,-0.41858 0.005,0.003 0.0156,0.0531 0.0346,0.17001 0.002,0.04 0.004,0.0799 0.007,0.11989 0.002,0.0395 10e-4,0.0705 0.003,0.10801 0.98235,-1.51415 0.66988,-1.10977 2.81689,-3.20239 0.0699,-0.0682 0.17297,-0.0918 0.25476,-0.14521 0.25533,-0.16658 0.51129,-0.3331 0.75654,-0.51418 3.68727,-2.72273 -2.48035,1.66807 2.88148,-2.11254 1.48711,-0.79756 1.04944,-0.63871 3.65094,-1.18597 0.1883,-0.0396 0.583,0.0171 0.9772,0.0894 -0.17651,-0.0207 -0.30589,-0.0212 -0.32349,0.015 -0.14976,0.0243 -0.58632,0.14989 -0.43563,0.13229 0.26933,-0.0314 0.53746,-0.0839 0.80511,-0.13953 h 5.3e-4 c 0.48298,-0.10041 0.9647,-0.21156 1.45108,-0.23202 z m -12.00495,7.29981 c -0.28048,0.0112 -0.54991,0.16832 -0.81649,0.36225 0.0102,0.10977 0.0226,0.24458 0.0227,0.25115 0.007,0.58768 -0.0106,1.19236 -0.0367,1.78284 0.22638,-0.25316 0.46652,-0.48118 0.76378,-0.57568 0.82301,-0.26162 1.65798,-0.49402 2.50579,-0.65836 0.0496,-0.01 0.10131,-0.019 0.15297,-0.0284 -0.73731,-0.4482 -1.50021,-0.83903 -2.32183,-1.09761 -0.0914,-0.0288 -0.18137,-0.0397 -0.27026,-0.0362 z m 10.45982,2.78536 c 8e-4,0.004 0.0109,0.0125 0.032,0.0274 0.15848,0.11156 0.3211,0.23007 0.49351,0.32194 0.0633,-0.01 0.11785,-0.0168 0.15555,-0.0165 -0.0278,-0.0156 -0.0547,-0.0327 -0.0827,-0.0481 -0.159,-0.0874 -0.60341,-0.31043 -0.59842,-0.28474 z m 0.74828,0.37259 c -0.006,0.0115 -0.0415,0.0355 -0.061,0.0527 0.063,0.0242 0.12656,0.046 0.19327,0.0579 0.0177,0.003 0.0396,2.2e-4 0.0584,0.001 -0.0633,-0.0376 -0.12676,-0.0751 -0.19068,-0.11162 z m 0.52555,0.30954 c -0.3715,0.0324 -0.71379,0.0516 -0.98599,0.0651 -0.7202,0.60139 -1.47044,1.16294 -2.24534,1.6924 0.005,0.009 0.008,0.0139 0.0134,0.0233 0.462,0.95372 1.30966,1.67829 1.78491,2.6231 0.0282,0.0561 0.0543,0.11321 0.0822,0.1695 0.17455,-0.0341 0.34232,-0.0525 0.50488,-0.06 1.04592,-0.5668 2.25971,-1.22507 3.77393,-2.06447 -0.89189,-0.81683 -1.26359,-1.13961 -2.45618,-2.16111 -0.15815,-0.0945 -0.31469,-0.19156 -0.47181,-0.28784 z m -8.47339,16.55506 c -0.0931,0.0535 -0.18746,0.10432 -0.28112,0.15658 0.24854,-0.0445 0.49878,-0.0962 0.75293,-0.15555 -0.15628,-5.3e-4 -0.31345,5.3e-4 -0.47181,-0.001 z m -1.27279,0.0956 c -0.0772,0.0192 -0.15292,0.0412 -0.22582,0.0682 -0.37053,0.13734 -0.18019,0.16725 0.24391,0.13074 -0.006,-0.0664 -0.013,-0.13249 -0.0181,-0.19895 z m -228.7493404,0.20102 c -0.00851,-5.3e-4 -0.017984,0.002 -0.020672,0.007 -0.088731,0.18297 -0.074099,0.41931 -0.022738,0.65474 0.00886,-0.0105 0.016915,-0.0232 0.025839,-0.0336 0.01129,-0.20622 0.035069,-0.41204 0.034107,-0.61857 -2.91e-5,-0.006 -0.00802,-0.01 -0.016536,-0.01 z m 4.051949,23.47609 c 0.041966,0.33712 0.082539,0.67444 0.1297078,1.01079 0.047204,0.3366 0.044283,-0.71455 -0.1297078,-1.01079 z m 268.2875014,3.13262 c -0.1093,0.0589 -0.22558,0.10384 -0.33589,0.16072 0.0394,0.12925 0.0838,0.25993 0.10748,0.39687 0.0916,-0.18436 0.17028,-0.37024 0.22841,-0.55759 z m -39.11441,67.05844 c -0.27947,0.0493 -0.63002,0.10651 -1.07642,0.17364 -0.01,10e-4 -0.009,-0.003 -0.0114,-0.005 -0.12911,0.0916 -0.2543,0.18742 -0.37207,0.29249 -0.10551,0.13895 -0.20978,0.27892 -0.31574,0.41754 -0.0962,0.12585 0.16103,-0.27864 0.27698,-0.38654 0.0121,-0.0113 0.0264,-0.02 0.0388,-0.031 0.1096,-0.14435 0.21887,-0.28899 0.32815,-0.43357 -0.13057,0.10378 -0.24398,0.21343 -0.3173,0.31058 -0.77579,1.02778 -1.48632,2.13122 -2.04122,3.29901 1.09416,0.33949 2.19128,0.66659 3.30213,0.9338 0.10754,-0.32385 0.21502,-0.64778 0.32143,-0.97203 0.0615,-0.40595 0.22891,-0.78325 0.3762,-1.16581 -0.13081,-0.81907 -0.29294,-1.63157 -0.50953,-2.43294 z m 2.79569,17.93327 c -0.13562,0.12557 -0.27218,0.25262 -0.41754,0.39224 -0.024,0.023 -0.0346,0.0388 -0.0512,0.0579 0.0139,0.051 0.0316,0.10075 0.0465,0.15142 0.10344,-0.008 0.27706,-0.0592 0.48472,-0.13489 -0.0156,-0.15517 -0.0362,-0.30845 -0.0625,-0.46664 z m 0.18087,3.37396 c -0.55233,0.58439 -1.14525,1.13115 -1.75286,1.65778 -0.0923,0.08 -0.19793,0.14115 -0.30903,0.19481 0.21039,0.071 0.42631,0.13713 0.64802,0.18965 1.26337,0.29964 1.93464,-0.38245 3.4985,-1.06296 0.18137,-0.17854 0.79223,-0.47858 0.54415,-0.53538 -0.86613,-0.19828 -1.74552,-0.33155 -2.62878,-0.4439 z M 79.645267,308.22667 c -0.09971,0.54536 -0.193824,1.09233 -0.314709,1.63193 -0.01789,0.11509 -0.0354,0.23018 -0.05374,0.3452 0.255966,-0.0114 0.511775,-0.022 0.767911,-0.0284 0.184316,-0.004 0.502544,-0.17283 0.553455,0.003 0.292314,1.01742 0.528743,1.73574 0.681612,2.27634 0.05907,0.007 0.114874,0.01 0.174148,0.0164 1.214364,0.1429 1.801808,0.21286 2.634465,0.31163 -0.04796,-0.28221 -0.07239,-0.39545 -0.13901,-0.81701 -0.03515,-0.22241 0.111948,0.43704 0.144177,0.6599 0.0077,0.0531 0.01257,0.10705 0.01963,0.1602 5.250042,0.62278 4.649237,0.55034 14.65802,1.43299 2.813634,0.2481 5.622864,0.57346 8.444444,0.70331 0.0257,0 0.0513,0.003 0.077,0.003 4.6217,-0.12404 9.24369,-0.25543 13.86634,-0.38965 1.06209,2.4e-4 2.1203,0.003 3.17913,-0.0114 0.69991,-0.7031 1.39663,-1.34937 2.01538,-1.90791 -0.11893,0.25138 -0.0945,0.19944 -0.20929,0.44183 0.0599,-0.0415 0.11909,-0.084 0.18087,-0.12298 0.1098,-0.21699 0.195,-0.37992 0.28525,-0.55399 -0.0789,0.0706 -0.17321,0.15897 -0.2558,0.23361 0.0994,-0.21045 0.0716,-0.1509 0.17519,-0.37002 0.15636,-0.11817 0.11739,-0.0877 0.24856,-0.18707 -0.0474,0.0891 -0.11212,0.2159 -0.16795,0.32348 1.58529,-1.41716 2.20821,-1.86896 0.16898,-0.32504 0.14739,-0.27707 0.26156,-0.48249 0.30955,-0.5426 0.84596,-1.05966 2.10606,-1.62703 3.39617,-2.16369 0.18394,-0.19841 0.37633,-0.38883 0.56276,-0.58496 -6.41498,0.10641 -12.83105,0.0953 -19.24689,0.0646 -5.01123,-0.0266 -10.02245,-0.01 -15.033704,-0.005 -0.960916,0 -1.922542,0.0246 -2.88303,0.003 -1.847712,-0.0553 -3.693128,-0.16975 -5.539713,-0.25476 -2.896505,-0.23048 -5.797352,-0.31036 -8.699212,-0.34571 z m 46.679833,4.70824 c -0.005,0.009 -0.0119,0.0243 -0.0165,0.0336 0.10385,-0.0544 0.20798,-0.1085 0.31832,-0.15399 0.3418,-0.14083 0.78129,-0.31395 1.21388,-0.48421 0.035,-0.0405 0.0699,-0.081 0.10491,-0.12142 -0.5818,0.18516 -1.13073,0.41672 -1.62058,0.72605 z m -42.211889,-0.14883 c -0.0078,0 -0.01701,-0.003 -0.02479,-0.003 0.03075,0.18103 0.06466,0.38883 0.08888,0.52398 -0.01916,-0.17362 -0.04092,-0.34763 -0.06408,-0.52088 z m 47.767109,-4.03799 c -0.11473,0.003 -0.22943,0.005 -0.34417,0.007 -0.0575,0.0537 -0.14039,0.10552 -0.16898,0.1602 -0.0137,0.0262 -0.0253,0.0538 -0.0387,0.0801 0.1865,-0.079 0.36856,-0.16443 0.5519,-0.24751 z m 3.82354,1.09606 c -0.0259,0.005 -0.0457,0.005 -0.0718,0.01 0.0155,0.018 0.0322,0.035 0.0475,0.0532 0.008,-0.0212 0.0163,-0.0421 0.0243,-0.063 z m -0.0243,0.063 c -0.0341,0.0898 -0.0678,0.17976 -0.10129,0.26977 0.0965,0.097 0.1933,0.19352 0.26872,0.30644 0.0709,0.1061 -0.19362,-0.166 -0.29042,-0.24908 0.007,-0.019 0.0146,-0.0382 0.0217,-0.0574 -0.0825,-0.083 -0.16385,-0.1669 -0.23203,-0.26045 -1.54737,0.32242 -3.38912,0.89974 -5.08547,1.50378 -0.0337,0.0885 -0.0688,0.17619 -0.10181,0.26509 0.89775,-0.16883 1.79904,-0.32041 2.62723,-0.54258 0.85501,-0.22942 1.77102,0.0108 2.65462,0.0646 0.0408,0.003 0.11919,0.004 0.17622,0.005 0.13214,-0.25754 0.31409,-0.49982 0.52917,-0.73895 -0.15739,-0.18706 -0.30922,-0.37971 -0.46664,-0.5664 z m 19.31975,-0.0568 c 0.0879,0.25974 0.18511,0.56174 0.2713,0.81441 0.0255,-0.25781 0.0584,-0.51485 0.0853,-0.77255 -0.11884,-0.014 -0.2377,-0.0276 -0.35657,-0.0419 z m -24.84035,1.83605 c -0.48419,0.0911 -0.96608,0.18825 -1.43608,0.30491 -0.31506,0.11983 -0.59666,0.22717 -0.88212,0.33951 -0.44387,0.51393 -0.89147,1.02486 -1.33738,1.53686 0.75588,-0.22249 2.18289,-0.75713 3.27214,-1.10432 0.1231,-0.36179 0.25105,-0.72065 0.38344,-1.07696 z m -0.38344,1.07696 c -0.17095,0.50255 -0.33189,1.01097 -0.49247,1.51926 0.55047,-0.464 1.12121,-0.95469 1.73839,-1.50738 0.57388,-0.51393 -0.17005,-0.35483 -1.24592,-0.0119 z m -0.49247,1.51926 c -0.16784,0.1415 -0.33421,0.28126 -0.49609,0.41498 0.13516,-0.18101 -0.20394,-0.20696 -0.81391,-0.1297 0.0328,0.20865 0.0672,0.40203 0.10025,0.60769 0.15298,-0.089 0.30754,-0.1752 0.45734,-0.26974 0.0203,-0.013 0.031,-0.0225 0.0491,-0.0346 -0.1695,0.1388 -0.32848,0.26437 -0.49144,0.39479 0.0751,0.46524 0.15046,0.92776 0.22686,1.37771 0.0315,8e-5 0.0631,-8e-5 0.0946,0 0.051,-0.0304 0.10091,-0.0596 0.15244,-0.0904 0.24052,-0.75578 0.48136,-1.51233 0.72089,-2.27068 z m -0.72089,2.27068 c -0.01,0.0303 -0.0188,0.0607 -0.0284,0.0909 2.06564,0.005 4.13136,0.0101 6.19704,0.014 0.35897,-0.362 0.70534,-0.73337 1.03818,-1.11466 0.0953,0.34004 0.21571,0.72803 0.33641,1.11517 h 1.04593 c -0.10135,-0.27594 -0.18829,-0.55772 -0.24753,-0.8449 -0.0473,-0.22942 -0.005,-0.46844 -0.0171,-0.70228 -0.005,-0.0893 -0.0232,-0.17754 -0.0346,-0.26614 -0.0102,-0.18093 -0.0579,-0.35785 -0.0946,-0.53536 -0.3151,0.42148 -0.64137,0.83468 -0.98857,1.23248 -0.43088,-1.53797 -0.59671,-2.62459 -0.43357,-3.50057 -2.63,1.90143 -4.87633,3.37484 -6.77323,4.51136 z m -2.41794,-3.49437 c -0.003,0.003 -0.006,0.004 -0.008,0.006 0.003,-0.003 0.005,-0.003 0.008,-0.004 z m -0.0212,0.0161 c -0.60959,0.36216 -1.11357,0.86989 -1.57045,1.44642 0.0742,0 0.14848,-1.1e-4 0.22273,-0.003 0.13086,-0.18684 0.26057,-0.37467 0.401,-0.55604 0.27227,-0.35169 0.59398,-0.63971 0.94672,-0.88728 z m -70.818932,0.15605 c -0.161285,-0.023 -0.255405,0.14597 -0.374137,0.69918 0.04265,-0.0196 0.101248,-0.0201 0.185,-0.0377 0.105134,-0.20026 0.205819,-0.39261 0.32091,-0.61235 -0.04742,-0.0238 -0.09333,-0.0436 -0.131773,-0.0491 z m -0.189137,0.66145 c -0.09065,0.17272 -0.192932,0.36852 -0.276469,0.52814 -0.08573,0.47093 -0.184277,1.06172 -0.331245,1.93839 -0.0075,0.2644 -0.01471,0.52927 -0.02223,0.79375 0.08638,0.58838 0.242589,1.17075 0.2589,1.76527 0.01164,0.42434 -0.184806,-0.82936 -0.244946,-1.24954 -0.05632,-0.39349 -0.0955,-0.78915 -0.133326,-1.18494 -0.117914,0.61809 -0.283625,1.44793 -0.48214,2.41173 0.04626,-0.13782 0.08864,-0.27347 0.137975,-0.41288 0.190849,-0.53922 0.02868,-0.0164 -0.210322,0.77565 -0.01008,0.0484 -0.01246,0.0649 -0.02273,0.11422 0.807135,8.7884 0.68204,2.9333 5.029668,-5.60173 -1.67944,0.42137 -2.554618,0.005 -3.054077,-0.29716 -0.324244,0.30856 -0.519711,0.39201 -0.649058,0.4191 z m -0.276469,0.52814 c 0.03074,-0.16888 0.06444,-0.36452 0.09147,-0.49041 -0.08277,0.0379 -0.123677,0.18532 -0.228412,0.75243 0.04188,-0.0803 0.09317,-0.17839 0.136943,-0.26202 z m 71.664358,-0.55293 c -0.004,1.9e-4 -0.0102,0.003 -0.0139,0.005 -0.25633,0.075 -0.50869,0.16333 -0.75757,0.26096 -0.0598,0.12081 -0.11753,0.23611 -0.17984,0.36227 0.13694,-0.004 0.27383,-0.007 0.41083,-0.0124 0.18065,-0.20495 0.36102,-0.40989 0.54054,-0.61598 z m -0.8909,0.3147 c -0.25019,0.102 -0.4976,0.21259 -0.74104,0.33332 0.19695,-0.004 0.39414,-0.0111 0.59118,-0.0161 0.0707,-0.14949 0.0766,-0.16237 0.14986,-0.31731 z m -0.14986,0.31731 c -0.0449,0.0949 -0.0515,0.10679 -0.0956,0.19998 0.0289,-0.003 0.0574,-0.003 0.0863,-0.005 0.0347,-0.0706 0.0642,-0.12904 0.0982,-0.19794 -0.0296,1.6e-4 -0.0593,0.003 -0.0889,0.003 z m -0.5917,0.0175 c -0.0319,0 -0.0637,8e-5 -0.0956,0.003 -0.0188,0.0268 -0.0393,0.0527 -0.0579,0.0796 0.0517,-0.0265 0.10151,-0.0564 0.15348,-0.0822 z m 0.36277,0.62269 c -0.0281,0.007 -0.057,0.0153 -0.0853,0.0228 -0.30782,0.65018 -0.43856,0.92583 -0.69763,1.47277 0.0183,3e-5 0.0365,-8e-5 0.0548,0 0.26713,-0.5498 0.47741,-0.98438 0.72812,-1.4955 z m 25.73693,1.37253 c -0.24668,-0.004 -0.47147,0.0292 -0.56431,0.13486 0.45572,-0.0101 0.91105,-0.0127 1.36581,0.0135 0.29338,0.0167 -0.29666,-0.14081 -0.8015,-0.1483 z m 3.3786,2.02054 c -0.12054,-0.0212 -0.30449,0.0878 -0.56585,0.35761 -2.40035,2.47764 -3.738,5.70069 -5.03794,8.96533 -0.0866,0.72575 -0.17025,1.45203 -0.25425,2.17816 0.96411,-2.01473 1.97677,-4.00008 3.27319,-5.80946 1.75532,-2.44991 -1.04005,3.45657 -3.47214,7.5148 -0.0355,0.30869 -0.0714,0.6173 -0.10697,0.92604 0.82864,-0.92599 2.03558,-2.39162 4.41265,-4.83849 0.3459,-2.60617 2.59509,-9.14564 1.75131,-9.29399 z m -6.05699,13.20644 c 0.0653,-0.56859 0.13318,-1.13675 0.19895,-1.70534 -0.63959,1.33672 -1.26268,2.68308 -1.92443,4.00597 0.10177,-0.0478 0.19934,-0.10467 0.29404,-0.1628 -0.13647,0.17087 -0.27314,0.33992 -0.40669,0.51473 0.0595,-0.047 0.11849,-0.0942 0.17725,-0.14214 0.10309,-0.13285 0.20816,-0.27048 0.31936,-0.42632 -0.0287,0.0188 -0.0593,0.0349 -0.0884,0.0527 0.1094,-0.13697 0.21887,-0.27329 0.33125,-0.40616 0.34548,-0.50681 0.71596,-1.09212 1.09864,-1.73064 z m -1.09864,1.73064 c -0.0818,0.12002 -0.16449,0.24355 -0.24288,0.35346 0.22114,-0.14621 0.4401,-0.33383 0.67386,-0.56534 0.33497,-0.43712 0.65222,-0.92503 0.41135,-0.69659 -0.29627,0.28106 -0.57284,0.58989 -0.84233,0.90847 z M 53.183824,321.44084 c -0.05179,0.20023 -0.09584,0.38071 -0.125574,0.52556 -0.03954,0.19252 -0.05925,0.38743 -0.07338,0.58341 0.05461,-0.36637 0.120637,-0.73588 0.198956,-1.10897 z m 0.36535,7.96335 c 0.101412,0.51329 0.194667,0.95239 0.282671,1.35442 0.01971,-0.17973 0.04442,-0.36155 0.0708,-0.54467 -0.105246,-0.27657 -0.220081,-0.54837 -0.353468,-0.80975 z m 81.173856,14.70141 c -0.0921,0.0929 -0.18439,0.18561 -0.27647,0.27855 0.0347,-0.0317 0.0724,-0.06 0.10594,-0.093 0.0493,-0.0485 0.11377,-0.12378 0.17053,-0.18553 z m -4.55373,2.56418 c -0.0485,0.0982 -0.10412,0.19773 -0.16536,0.29819 0.11687,-0.0935 0.28781,-0.21643 0.38189,-0.29713 h -0.21653 z" />
    </clipPath>
  </defs>
  <g
     inkscape:label="Capa 1"
     inkscape:groupmode="layer"
     id="layer1">
    <circle
       id="path859"
       style="fill:#ffffff;stroke:#3f3d56;stroke-width:12;stroke-miterlimit:4;stroke-dasharray:none"
       cx="-118.27318"
       cy="55.093063"
       r="0.1952403" />
    <circle
       id="path861"
       style="fill:#ffffff;stroke:#3f3d56;stroke-width:12;stroke-miterlimit:4;stroke-dasharray:none"
       cx="-118.27318"
       cy="55.093063"
       r="0.1952403" />
    <path
       style="fill:none;stroke:#000000;stroke-width:7;stroke-linecap:butt;stroke-linejoin:miter;stroke-opacity:1;stroke-miterlimit:4;stroke-dasharray:none"
       d="m -19.299639,240.88808 c 11.4242613,-2.78556 23.3465213,-3.51549 35.025271,-2.1444 18.088328,2.12358 35.549298,9.35367 49.844019,20.63897 14.294721,11.28531 25.379772,26.59156 31.643344,43.69316"
       id="path2607"
       inkscape:path-effect="#path-effect2609"
       inkscape:original-d="m -19.299639,240.88808 c 11.3190663,-1.35894 23.5652496,-3.8634 35.025271,-2.1444 28.938796,4.34082 74.163816,35.03794 81.487363,64.33213" />
    <path
       style="fill:none;stroke:#000000;stroke-width:7;stroke-linecap:butt;stroke-linejoin:miter;stroke-opacity:1;stroke-miterlimit:4;stroke-dasharray:none"
       d="m 120.80144,311.65342 c 10.52983,-15.66538 15.87477,-34.75446 15.01083,-53.6101 -0.83281,-18.17625 -7.79082,-36.57906 -21.44404,-48.6065 -3.0479,-2.68497 -6.46174,-5.11037 -8.57762,-8.57762 -1.60276,-2.62641 -2.35669,-5.74397 -2.2427,-8.81869 0.11399,-3.07471 1.08206,-6.09947 2.67897,-8.72943 3.19383,-5.25994 8.8087,-8.78944 14.79059,-10.23321 5.98188,-1.44377 12.30434,-0.94751 18.27258,0.55166 5.96824,1.49918 11.64191,3.97053 17.25146,6.50043 6.50976,2.9359 12.97984,5.96727 19.29964,9.29242 24.16748,12.71566 46.0588,29.74225 64.33213,50.0361"
       id="path2611"
       inkscape:path-effect="#path-effect2613"
       inkscape:original-d="m 120.80144,311.65342 c 8.37896,-18.15441 16.345,-31.37405 15.01083,-53.6101 -1.31827,-21.97115 -7.33269,-35.5031 -21.44404,-48.6065 -2.41013,-2.23797 -6.9984,-5.41918 -8.57762,-8.57762 -8.386781,-16.77356 44.66796,-21.08706 50.7509,-20.72924 0.69742,0.041 18.85456,9.00215 19.29964,9.29242 26.92272,17.55829 27.79847,50.0361 64.33213,50.0361" />
    <path
       style="fill:none;stroke:#000000;stroke-width:7;stroke-linecap:butt;stroke-linejoin:miter;stroke-opacity:1;stroke-miterlimit:4;stroke-dasharray:none"
       d="m 213.01083,127.94946 c -2.6395,-6.56727 -7.86525,-12.0543 -14.29603,-15.01083 -6.62524,-3.04593 -14.2602,-3.3912 -21.43397,-2.0841 -7.17376,1.3071 -13.96611,4.17927 -20.52423,7.36715 -6.55811,3.18787 -12.96165,6.71691 -19.71763,9.46065 -6.75598,2.74374 -13.9507,4.70063 -21.24114,4.55593 -9.49535,-0.18846 -18.519336,-3.89276 -27.790202,-5.9539 -4.635433,-1.03058 -9.408046,-1.6542 -14.135545,-1.20691 -4.7275,0.44729 -9.428972,2.02138 -13.113961,5.01641 -3.269051,2.65697 -5.61893,6.33303 -7.097531,10.27763 -1.478601,3.94461 -2.122672,8.16007 -2.362963,12.36583 -0.480583,8.41153 0.615116,16.90349 -0.546727,25.24824 -1.531467,10.99951 -7.108388,21.38979 -15.428887,28.74533 -8.3205,7.35554 -19.316332,11.616 -30.4206318,11.78684 -11.1042998,0.17083 -22.2259882,-3.74936 -30.7688202,-10.84547 -8.542832,-7.0961 -14.436738,-17.3099 -16.305846,-28.2571"
       id="path2615"
       inkscape:path-effect="#path-effect2617"
       inkscape:original-d="m 213.01083,127.94946 c -3.33574,0 -10.96628,-14.81105 -14.29603,-15.01083 -32.41691,-1.94502 -50.49317,21.12633 -82.91697,19.29963 -18.331419,-1.03275 -38.033641,-9.06547 -55.039708,-2.1444 -15.095175,6.14339 -0.338026,36.84119 -10.007221,47.8917 -15.030604,17.17783 -71.660352,1.4296 -92.924185,1.4296"
       sodipodi:nodetypes="ccsssc" />
    <path
       style="fill:none;stroke:#000000;stroke-width:7;stroke-linecap:butt;stroke-linejoin:miter;stroke-miterlimit:4;stroke-dasharray:none;stroke-opacity:1"
       d="m -2.1444043,91.494582 c 10.7456712,2.99988 22.5247293,2.145527 32.7250353,-2.373596 10.200307,-4.519123 18.746828,-12.669774 23.744277,-22.644453 5.32542,-10.629294 6.587955,-22.840886 11.092369,-33.84326 2.252207,-5.501187 5.376746,-10.751106 9.821547,-14.698162 4.4448,-3.947055 10.321816,-6.49275 16.25576,-6.140887 5.320328,0.315477 10.303706,2.902551 14.384676,6.330542 4.08097,3.42799 7.37637,7.678202 10.63337,11.896895 8.26773,10.708943 16.6116,21.553126 27.16246,30.021661 18.97021,15.226229 44.71724,21.662985 68.62094,17.155232"
       id="path2619"
       inkscape:path-effect="#path-effect2621"
       inkscape:original-d="M -2.1444043,91.494582 C 20.577763,92.191812 38.340074,81.795333 54.324908,66.476533 68.454354,52.935817 44.111099,18.563293 91.494584,11.794224 c 6.664902,-0.95213 18.646816,15.04182 25.018046,18.227437 14.66364,7.331818 18.92787,16.983566 27.16246,30.021661 20.80841,32.946662 35.19685,17.155232 68.62094,17.155232"
       sodipodi:nodetypes="cssssc" />
  </g>
</svg>
