<?xml version="1.0" encoding="UTF-8" standalone="no"?>
<!-- Created with Inkscape (http://www.inkscape.org/) -->

<svg
   width="210mm"
   height="297mm"
   viewBox="0 0 210 297"
   version="1.1"
   id="svg5"
   inkscape:version="1.1.2 (b8e25be833, 2022-02-05)"
   sodipodi:docname="bg-prueba2.svg"
   xmlns:inkscape="http://www.inkscape.org/namespaces/inkscape"
   xmlns:sodipodi="http://sodipodi.sourceforge.net/DTD/sodipodi-0.dtd"
   xmlns="http://www.w3.org/2000/svg"
   xmlns:svg="http://www.w3.org/2000/svg">
  <sodipodi:namedview
     id="namedview7"
     pagecolor="#505050"
     bordercolor="#eeeeee"
     borderopacity="1"
     inkscape:pageshadow="0"
     inkscape:pageopacity="0"
     inkscape:pagecheckerboard="0"
     inkscape:document-units="mm"
     showgrid="false"
     inkscape:zoom="0.74029882"
     inkscape:cx="435.6349"
     inkscape:cy="640.28199"
     inkscape:window-width="1920"
     inkscape:window-height="1017"
     inkscape:window-x="-8"
     inkscape:window-y="-8"
     inkscape:window-maximized="1"
     inkscape:current-layer="layer1" />
  <defs
     id="defs2">
    <inkscape:path-effect
       effect="spiro"
       id="path-effect2382"
       is_visible="true"
       lpeversion="1" />
    <inkscape:path-effect
       effect="spiro"
       id="path-effect2378"
       is_visible="true"
       lpeversion="1" />
    <inkscape:path-effect
       effect="spiro"
       id="path-effect2374"
       is_visible="true"
       lpeversion="1" />
    <inkscape:path-effect
       effect="spiro"
       id="path-effect2017"
       is_visible="true"
       lpeversion="1" />
    <inkscape:path-effect
       effect="spiro"
       id="path-effect1980"
       is_visible="true"
       lpeversion="1" />
    <inkscape:path-effect
       effect="spiro"
       id="path-effect1943"
       is_visible="true"
       lpeversion="1" />
    <inkscape:path-effect
       effect="spiro"
       id="path-effect1906"
       is_visible="true"
       lpeversion="1" />
    <inkscape:path-effect
       effect="spiro"
       id="path-effect1676"
       is_visible="true"
       lpeversion="1" />
    <inkscape:path-effect
       effect="simplify"
       id="path-effect1672"
       is_visible="true"
       lpeversion="1"
       steps="1"
       threshold="0.00133333"
       smooth_angles="360"
       helper_size="0"
       simplify_individual_paths="false"
       simplify_just_coalesce="false" />
    <inkscape:path-effect
       effect="simplify"
       id="path-effect1442"
       is_visible="true"
       lpeversion="1"
       steps="1"
       threshold="0.00133333"
       smooth_angles="360"
       helper_size="0"
       simplify_individual_paths="false"
       simplify_just_coalesce="false" />
    <inkscape:path-effect
       effect="spiro"
       id="path-effect2621"
       is_visible="true"
       lpeversion="1" />
    <inkscape:path-effect
       effect="spiro"
       id="path-effect2617"
       is_visible="true"
       lpeversion="1" />
    <inkscape:path-effect
       effect="spiro"
       id="path-effect2613"
       is_visible="true"
       lpeversion="1" />
    <inkscape:path-effect
       effect="spiro"
       id="path-effect2609"
       is_visible="true"
       lpeversion="1" />
    <inkscape:path-effect
       effect="spiro"
       id="path-effect2564"
       is_visible="true"
       lpeversion="1" />
    <inkscape:path-effect
       effect="spiro"
       id="path-effect1327"
       is_visible="true"
       lpeversion="1" />
    <inkscape:path-effect
       effect="spiro"
       id="path-effect1017"
       is_visible="true"
       lpeversion="1" />
    <inkscape:path-effect
       effect="spiro"
       id="path-effect1013"
       is_visible="true"
       lpeversion="1" />
    <inkscape:path-effect
       effect="spiro"
       id="path-effect1009"
       is_visible="true"
       lpeversion="1" />
    <clipPath
       clipPathUnits="userSpaceOnUse"
       id="clipPath2272">
      <path
         id="path2274"
         style="fill:#ff0000;fill-opacity:1;fill-rule:nonzero;stroke:none;stroke-width:0.264583"
         d="M -68.36482,-29.859676 V 156.91858 c 0.149204,-0.0397 0.304184,-0.0729 0.449586,-0.1173 1.299482,-0.39719 2.480259,-0.53595 3.674194,-0.5302 1.54109,-0.21078 3.670933,-0.47539 5.261176,-0.4563 0.535133,0.006 1.00874,0.0451 1.377696,0.12867 0.968558,0.21933 2.825864,0.76054 4.634857,1.48311 1.796259,-0.3729 2.967472,-0.35218 4.936652,-0.42219 1.409761,0.60452 2.922775,1.01825 4.291727,1.69808 1.129977,-0.3889 2.211437,-0.67115 3.035474,-0.68522 1.855708,-0.0317 3.740436,0.15419 5.530927,0.64285 0.555771,0.15168 1.108128,0.35406 1.636078,0.60565 0.510439,-0.1461 1.026533,-0.26662 1.548225,-0.35347 1.435431,-0.23896 2.839855,0.63772 4.259688,0.95653 0.557464,0.53048 1.137838,1.03932 1.716691,1.54978 0.570519,-0.79425 1.220552,-1.41938 2.100131,-1.36271 3.246171,0.20913 5.883536,2.74247 8.797395,4.22042 1.977612,-2.19745 2.316436,-0.66103 9.1694662,4.74596 0.2688815,0.21214 0.03071,0.68432 0.03359,1.02681 2.646e-4,0.032 -0.010155,0.65875 -0.019121,1.20044 0.044631,0.12214 0.081527,0.22425 0.093534,0.28939 0.2159797,1.1717 0.2825107,1.56592 0.3219442,2.00453 3.0325644,-0.83329 2.8764472,-0.7381 3.1098877,2.60862 -0.015168,0.63133 -0.016338,1.26313 -0.045475,1.89395 -0.00189,0.041 -0.00522,0.082 -0.00723,0.12299 0.5469875,0.65677 0.6102955,1.76272 0.8077026,3.7207 0.1128086,1.17239 0.3564915,2.3279 0.4898926,3.49746 0.1236399,1.08398 0.22429356,2.17068 0.32349445,3.25717 0.0683121,0.74818 0.18738422,1.49512 0.17931723,2.24637 -0.0320038,2.98022 -0.16126177,3.05946 -0.71881918,5.57795 -1.9629083,3.45734 -2.4445823,5.64474 -7.2538209,4.76199 -3.5995549,2.68163 -8.5886909,0.55219 -9.0449249,-5.93245 -1.048312,-0.12513 -2.102475,-0.50283 -3.151229,-0.64751 -1.510433,-1.83121 -3.217335,-3.51659 -4.53099,-5.49372 -0.587298,-0.88392 -0.711729,-2.00001 -1.103291,-2.98638 -0.0029,-0.007 -0.0059,-0.0144 -0.0088,-0.0217 -1.998861,-0.12199 -3.964999,-0.57211 -5.704044,-1.51154 -2.314887,-1.25048 -3.577569,-2.23378 -4.736661,-3.41736 -2.982677,-0.30988 -6.094754,-0.78664 -8.63048,-1.99677 -0.896726,-0.42796 -1.772161,-0.91485 -2.609663,-1.45883 -1.268023,-0.35747 -2.555851,-0.78716 -3.913454,-1.22628 -0.557234,-0.18024 -1.101799,-0.39445 -1.640727,-0.62374 -0.344543,0.0389 -0.68961,0.0642 -1.02526,0.0842 -2.274192,0.1359 -8.017904,-0.28907 -10.661364,-1.12345 -0.364728,-0.11512 -0.726184,-0.24049 -1.085723,-0.37155 -0.564489,-0.0648 -1.214634,-0.14498 -1.888257,-0.23875 v 173.5946 H 69.290863 c -0.531593,-0.40849 -1.058445,-0.82219 -1.585434,-1.23557 -0.02043,-0.003 -0.03732,-0.004 -0.05788,-0.007 -1.509098,-0.19145 -4.265266,0.58804 -4.470011,-0.91932 -0.07396,-0.54454 -0.136001,-1.08998 -0.192754,-1.63557 -0.393695,-0.26938 -0.782746,-0.54798 -1.185455,-0.80047 -2.046626,0.59295 -3.944093,-2.19488 -5.261695,-5.99292 -0.0095,-0.0103 -0.02273,-0.0228 -0.03204,-0.0331 -0.507463,-0.55825 -0.861319,-1.20685 -1.136364,-1.90323 0.0223,0.34152 -0.01781,0.0978 -0.05271,-0.13642 0.01714,0.0455 0.0349,0.0908 0.05271,0.13589 -0.01929,-0.29493 -0.03844,-0.77203 -0.04702,-1.2976 -0.06916,-0.0551 -0.137332,-0.11147 -0.20619,-0.1669 0.142994,0.93081 0.168471,1.11186 0.200504,1.32705 -0.187196,-0.497 -0.335796,-1.01719 -0.470771,-1.54668 -0.119176,-0.0974 -0.240937,-0.19174 -0.359153,-0.29043 -0.554223,-0.46265 -0.708623,-1.12845 -0.701765,-1.87637 -0.852408,-2.94688 -1.188662,-5.54215 -0.888317,-8.25376 -0.0057,-0.76626 -0.0011,-1.86632 5.29e-4,-1.97196 -0.0047,-2.5703 0.24302,-3.49322 1.376143,-5.73403 -0.366999,-3.66884 -0.09836,-5.94437 0.639238,-7.19024 -2.181249,-0.009 -4.362495,-0.0196 -6.543786,-0.0156 -2.571131,0.009 -5.142087,0.005 -7.713226,0.003 -0.23164,-2.7e-4 -0.463407,0 -0.695047,0 -5.003578,0.004 -5.007576,-5.05047 -0.0036,-5.05447 0.233881,-1.6e-4 0.467366,0 0.701249,0 2.567223,0.003 5.134639,0.007 7.701854,-0.003 4.928783,-0.008 9.857396,0.0385 14.786179,0.0357 1.252842,-0.008 2.507083,-0.0292 3.760494,-0.0475 0.939019,-0.32195 2.123533,-0.49705 3.183268,-0.493 0.984954,0.004 1.823022,0.14912 2.191081,0.42532 1.195835,-0.0164 2.391137,-0.0383 3.586861,-0.0439 4.240943,-0.0206 8.480277,0.0495 12.711885,0.38603 1.766528,0.0832 3.531735,0.19682 5.299419,0.25011 0.960377,0.0289 1.9217,-0.003 2.882511,-0.003 5.02118,-0.005 10.04255,-0.0281 15.06368,0.005 8.01003,0.0384 16.01972,0.0545 24.02799,-0.16176 1.68235,0.0119 3.36543,-0.009 5.04724,0.0351 5.55419,0.14605 11.09411,0.73618 16.60519,1.40613 4.43207,0.5388 4.39981,4.57978 0.81493,5.01674 1.32336,1.236 2.66381,2.47129 3.52279,4.04215 2.21637,4.05307 2.94822,7.1252 2.76314,11.21687 -0.0711,1.57271 -0.25194,3.13846 -0.37776,4.70773 -0.45143,-6.46154 0.16849,-3.55618 -4.83588,-7.7711 2.3546,6.81207 1.69494,7.41498 -3.63285,10.75748 1.55189,13.31204 3.84754,13.64602 -6.46421,13.66634 -5.6436,0.005 -11.28717,-0.003 -16.93075,-0.0151 -0.21998,0.20958 -0.8369,0.58306 -1.82779,1.18441 H 314.01237 V 82.516927 c -0.25691,0.555779 -0.54523,1.101079 -0.79119,1.659329 -0.0519,0.08715 -0.10056,0.176445 -0.15089,0.264583 -0.43712,1.032505 -0.84778,2.077252 -1.34771,3.080433 -0.51281,1.029041 -1.43885,2.223252 -2.12441,3.160533 -0.90133,1.213548 -1.88593,2.351746 -2.93008,3.441131 -0.10983,0.170907 -0.22407,0.339294 -0.32967,0.512114 -1.25952,2.060887 -1.88455,2.412413 -4.61679,4.743381 -0.34785,0.296762 -0.71366,0.681939 -1.11776,0.911569 -0.18556,0.17449 -0.37132,0.34892 -0.56481,0.5147 -0.50514,0.43279 -1.10871,0.73556 -1.65055,1.12138 -0.0286,0.0204 -0.0262,0.0675 -0.0522,0.091 -0.13303,0.11945 -0.27517,0.2294 -0.42064,0.33331 -0.52914,0.37795 -1.06825,0.7414 -1.6025,1.11208 -1.62126,1.09029 -3.36576,1.88598 -5.16297,2.63653 -1.66174,1.37682 -3.57402,2.56165 -5.52061,3.45147 -0.56761,0.25946 -1.14758,0.49075 -1.72289,0.73277 -0.48445,0.38948 -0.97179,0.77513 -1.4578,1.16272 -1.47294,0.98146 -1.2065,0.85296 -2.80292,1.71049 -0.22812,0.12255 -0.46453,0.22937 -0.69556,0.34623 0.0349,-0.009 0.0614,-0.009 0.063,0.016 0.007,0.10684 -0.16711,0.13644 -0.26202,0.18604 -1.01142,0.52944 -2.03602,1.03316 -3.05406,1.54977 -0.1815,0.0626 -0.36038,0.14425 -0.53848,0.22893 -0.27593,0.17162 -0.54951,0.34677 -0.83251,0.50643 -0.29916,0.16879 -1.4455,0.66605 -1.94924,0.88677 -1.02592,0.45263 0.23871,-0.0993 0.73899,-0.38086 0.2681,-0.15089 1.04912,-0.63617 0.76686,-0.51366 -1.6991,0.73762 -3.30512,1.68688 -5.02914,2.3642 -0.69901,0.2746 -1.4976,0.21385 -2.20348,0.47025 -0.0463,0.0117 -0.0925,0.0241 -0.13901,0.0351 -0.10184,0.0323 -0.22765,0.0706 -0.29197,0.0935 -0.0397,0.004 -0.15761,0.0212 -0.11938,0.0104 0.13555,-0.0404 0.27377,-0.071 0.41135,-0.10387 0.39317,-0.12473 0.90673,-0.27957 0.64595,-0.24081 -1.88359,0.27981 -3.72988,0.79182 -5.61929,1.02939 -0.0789,0.01 -1.50829,-0.087 -2.12855,-0.12867 -0.60749,0.0184 -1.21485,0.0298 -1.82263,0.0315 -0.22509,-0.006 -0.45032,-0.0116 -0.67541,-0.0176 -1.00445,-0.0261 -1.84384,-0.10291 -2.61225,-0.20153 -0.50337,0.28444 -1.00888,0.56475 -1.52187,0.82837 -0.0643,0.90981 -0.11812,1.82035 -0.18345,2.73007 -1.24317,0.10655 -2.48634,0.29741 -3.72949,0.4718 -0.16998,0.7795 -0.48375,1.52902 -0.70383,2.29805 -2.46206,-0.29441 -5.05114,-0.10711 -7.48791,-0.49764 -1.75923,1.27446 -4.04043,1.6515 -6.97477,0.077 -0.0915,-0.0491 -0.17775,-0.10362 -0.26148,-0.1602 -0.13004,0.11413 -0.27906,0.21043 -0.45373,0.2837 -6.72892,2.82294 -7.48304,0.25644 -9.16946,-3.05614 -2.03665,1.01553 -4.50518,0.26713 -5.96811,-2.22881 v 3.50987 c 0,5.00361 -5.05447,5.00361 -5.05447,0 v -9.63456 -5.82445 -5.06997 -0.6227 c 0,-2.31491 1.08267,-3.545208 2.24534,-3.718121 -0.30405,-0.890646 -0.19909,-1.755055 1.64021,-2.502688 0.12505,-0.05083 0.23794,-0.09271 0.35967,-0.141076 1.10653,-1.542614 2.2396,-3.021886 3.96099,-3.086635 2.65443,-0.09984 3.87701,1.298626 4.41885,3.092837 0.0558,0.07173 0.11065,0.146465 0.16434,0.223758 0.0958,-0.208309 0.19073,-0.417034 0.28112,-0.627354 1.51043,0.577834 3.01082,1.183757 4.516,1.776122 0.83725,-1.059501 1.80446,-2.032323 2.6448,-3.089736 1.63873,-0.151072 3.27363,-0.557911 4.91598,-0.453202 0.86998,0.05547 1.64958,0.571069 2.44739,0.922425 0.14206,0.06256 0.27532,0.125897 0.40463,0.189653 0.11619,-0.374499 0.23421,-0.748652 0.35605,-1.121381 0.17081,-0.522499 0.4045,-1.026345 0.67696,-1.503783 0.18941,-0.331904 0.6715,-0.526851 0.6997,-0.907955 0.081,-1.095097 -1.3008,-2.656728 -0.39067,-3.271117 4.67276,-3.154392 6.85436,-4.522584 8.18916,-4.498952 1.28112,0.02267 1.79828,1.353802 2.9745,3.591513 1.32311,-2.617251 3.98157,-7.42669 6.10918,-10.091373 0.0893,-0.219371 0.26361,-0.533376 0.36639,-0.678513 1.52488,-2.153224 3.05022,-4.314963 4.76405,-6.32106 1.51677,-1.77542 3.17496,-3.056564 5.01778,-4.133599 1.35396,-4.311919 5.44325,-7.276708 11.0226,-7.145816 3.02935,0.07107 6.50121,1.075645 10.20712,3.250446 0.53044,-0.590352 1.06439,-1.177724 1.61489,-1.749764 v -1.57613 c 0,-1.276308 0.0122,-2.552468 -0.003,-3.828707 -0.0177,-1.443206 -0.0222,-2.893345 0.076,-4.331517 0.65125,3.319632 -0.48506,-2.313212 -0.0579,-0.816488 0.45138,0.94924 -0.18137,-0.358577 -0.44905,-1.325502 -0.20526,-0.741476 -0.73247,-2.846591 -0.88212,-4.296894 -0.85667,-2.044552 -0.55478,-1.240039 -1.48519,-4.880324 -0.006,-0.02503 0.0254,0.04473 0.0382,0.06718 0.0733,0.168137 0.26826,0.681355 0.22016,0.504362 -0.89416,-3.289062 -0.34298,-0.04716 -1.17616,-4.614188 -0.20005,-1.096301 -0.23095,-3.287035 -0.26614,-4.123264 -0.004,-0.09931 0.009,0.198358 0.013,0.297656 0.14756,-0.342503 0.0377,-0.05466 -0.047,-0.944128 -0.0943,-0.990076 -0.14984,-1.993966 -0.36018,-2.96726 -0.23482,-1.135745 -0.49453,-2.333818 -0.57102,-3.464388 -0.0676,-0.999481 0.0259,-2.003301 0.0387,-3.004985 0.0813,-0.01052 0.1369,-0.0069 0.13489,-0.171049 -0.007,-0.531231 -0.0785,-1.059745 -0.11782,-1.589567 -0.0324,-0.942398 -0.0682,-1.884721 -0.0977,-2.827217 -0.003,-0.101605 0.004,0.203799 0.0185,0.304374 0.0188,0.127126 0.0885,0.504994 0.0817,0.376721 -0.0483,-0.827138 -0.26752,-1.643874 -0.33022,-2.47065 -0.19117,-1.518131 -0.56785,-3.010854 -0.85731,-4.510836 -0.0794,-0.8739013 -0.17923,-1.7460269 -0.23823,-2.6215451 -0.0204,-0.3034911 -3e-5,-0.6084263 0,-0.9126059 V 6.2482238 c -0.0249,-0.033147 -0.055,-0.061757 -0.0796,-0.095085 -2.08084,-2.8211484 -1.7862,-2.1728811 -2.4231,-3.7289713 0.17449,0.1411113 0.34319,0.2895946 0.52348,0.42323 0.0217,0.016193 0.055,0.00915 0.0786,0.022738 0.34073,0.1966029 1.32395,0.8468008 1.01235,0.6066814 -2.29669,-1.7698172 -3.88101,-2.1905764 -5.61361,-5.1784952 0.1197,0.1165329 0.46252,0.4805764 0.35914,0.3493327 -0.41029,-0.5208655 -0.60751,-0.7587075 -0.73173,-0.9007203 -0.0345,-0.02166 -0.0685,-0.044253 -0.10284,-0.066146 0.14581,0.2462479 0.44222,0.6638284 -0.0827,-0.05271 -0.26485,-0.1709405 -0.52623,-0.3483177 -0.77619,-0.5493206 -0.33848,-0.1972945 -0.6755,-0.397221 -1.01234,-0.5973794 -2.955,-1.2146137 -2.22679,-0.9170096 -3.61786,-2.4220744 -0.29269,-0.1471173 -0.60331,-0.3046389 -0.79375,-0.3911907 0.032,0.027269 0.0642,0.054355 0.0961,0.081649 0.0428,0.036493 -0.18669,-0.123712 -0.13539,-0.1007689 0.009,0.00397 0.0299,0.014848 0.0393,0.019121 -0.26983,-0.2299957 -0.54105,-0.4584332 -0.81185,-0.6872965 0.2677,0.1402123 0.79227,0.4558565 1.34101,0.7880657 -0.16761,-0.1724117 -0.35872,-0.3626837 -0.5824,-0.5782593 -0.34105,-0.1013579 -0.63579,-0.1990397 -0.85677,-0.2930054 0.0327,0.027597 0.065,0.055593 0.0977,0.083199 -0.2748,-0.1439193 -0.4217,-0.2026986 -0.49663,-0.2185913 0.28567,0.3548023 -0.23937,-0.050784 0,0 -0.0201,-0.025104 -0.0605,-0.068598 -0.0894,-0.1018024 -0.42836,-0.2208924 -0.96245,-0.5219682 -2.20607,-1.1544517 -0.10234,-0.1047202 -0.2017,-0.2123996 -0.30335,-0.3178101 -0.30078,-0.1082818 -0.76028,-0.2793381 -1.54255,-0.5705078 -0.108,-0.040196 -0.31924,-0.1406012 -0.5085,-0.2284098 -0.54631,0.037155 -1.09291,0.076124 -1.63917,0.114205 -1.44933,-0.073663 -3.12281,-0.036633 -4.56355,-0.4568197 -0.86084,-0.2510608 -1.70448,-0.5568168 -2.54868,-0.8604118 -0.12467,-0.03505 -0.26733,-0.07595 -0.34416,-0.09612 -0.5261,-0.175321 -0.32146,-0.102867 -0.62426,-0.201538 -1.28219,0.01752 -2.56437,0.03466 -3.84627,-0.0036 -0.0246,0.08985 -0.0464,0.180519 -0.0713,0.270268 -0.13193,0.475022 -0.33691,0.9262583 -0.50539,1.3895792 -5.79662,15.9407207 -18.57777,17.1004818 -23.54533,8.86922605 -1.29995,0.0941969 -2.69912,0.37717413 -3.90106,-0.12092284 -0.16892,-0.0700039 -0.34272,-0.13737135 -0.51831,-0.20463867 -1.83607,-0.31035964 -3.58088,-0.95556274 -5.13767,-2.04121904 -0.92544,-0.5138478 -1.72041,-1.1444073 -2.25413,-1.9797241 0.39305,1.6040068 0.51389,3.2813979 0.72089,4.90616043 0.63235,4.96349157 -4.32114,5.51217927 -5.02347,0.55810546 -0.23866,-1.68344879 -0.26158,-3.47214149 -0.82475,-5.09943039 -0.40707,-1.1762412 -1.02372,-2.335829 -1.52963,-3.4674887 -0.71978,-1.6449032 -0.57864,-1.128528 -0.98598,-3.6359534 -0.0936,-0.57597 -0.0355,-1.17497 -0.17105,-1.742529 -0.0905,-0.378811 -0.78763,-1.940108 -1.09864,-2.374015 -0.21142,-0.294979 -0.49445,-0.531564 -0.74156,-0.797368 -0.78722,-0.56821 -1.41842,-1.285028 -1.94872,-2.074809 l -0.22737,0.0067 c -3.41884,0.10189 0.22535,-2.585942 1.29036,-4.098975 -0.0347,-0.119996 -0.0789,-0.235379 -0.11111,-0.356567 -0.019,-0.07139 0.0561,0.136845 0.0842,0.205156 0.0433,0.0857 0.0239,0.04734 0.0558,0.110587 0.004,-0.0063 0.006,-0.01127 0.01,-0.01757 -0.12224,-0.26426 -0.22494,-0.566813 -0.37879,-0.932242 -0.20638,-0.01249 -0.46174,-0.0041 -0.79478,0.03772 -0.0724,0.0091 -0.14456,0.01786 -0.21704,0.02687 0.30968,-0.118441 0.62776,-0.190661 0.94775,-0.225826 -0.13316,-0.325414 -0.30225,-0.672758 -0.35967,-0.896069 -0.23038,-0.8959 -0.34965,-1.81506 -0.47801,-2.732651 0.008,0.06804 -0.0995,-0.318222 -0.14676,-0.468188 -0.005,-0.05649 -0.0183,-0.17 -0.0274,-0.25373 -0.0243,-0.09019 -0.0492,-0.180224 -0.0718,-0.270786 -0.11423,-0.456906 -0.19031,-0.890317 -0.28319,-1.334285 z m 273.77037,1.605071 c 0.0621,0.230325 0.12329,0.460819 0.17001,0.694531 -0.0704,-0.502801 -0.14317,-1.005237 -0.24029,-1.502752 -0.0572,-0.293176 0.0224,0.367356 0.0703,0.808221 z m 0.17001,0.694531 c 0.001,0.0092 0.003,0.01826 0.004,0.02739 -5.3e-4,-0.0055 0.009,0.03059 0.007,0.0181 -0.003,-0.01532 -0.008,-0.03019 -0.0109,-0.04547 z m 67.77313,21.3289299 c 0.11771,0.1211209 0.17039,0.1879322 0.26511,0.2904214 0.58764,0.2953872 1.13398,0.5714974 0.79994,0.3601847 -0.46995,-0.2973181 -0.72832,-0.4467338 -1.06505,-0.6506061 z M 214.78844,-29.859676 c -0.52697,0.275296 -0.68791,0.544404 -0.0491,0.799951 0.64299,0.257212 1.3002,0.45389 1.96423,0.621149 0.60729,-0.491355 1.19397,-0.957929 1.65468,-1.303279 -0.005,-0.03927 -0.01,-0.07856 -0.0145,-0.117821 z m 68.3152,0 c 0.0336,0.02604 0.0699,0.04807 0.10337,0.07441 0.20989,0.08873 0.42071,0.175498 0.62735,0.271817 0.49504,0.230761 0.95581,0.528007 1.39473,0.86093 0.10554,-0.413594 0.21891,-0.819184 0.34935,-1.207161 z m 24.13704,0 c 1.15104,2.039016 2.13153,4.468061 2.84839,7.33547 0.37788,1.511341 0.36005,1.473913 0.74208,2.857706 -0.45593,-1.455998 -1.3526,-4.119207 -0.76893,-1.498616 0.49977,2.243959 1.28463,4.414448 1.92701,6.621818 -0.053,0.525051 -0.11202,1.049875 -0.16899,1.574581 0.006,0.193201 0.0119,0.421574 0.0185,0.542086 0.0938,1.726806 -0.0622,3.0352271 -0.45836,4.482413 -0.006,0.311141 -0.0206,0.6152314 -0.0367,1.0345623 -0.0145,0.1829763 -0.0431,0.3652473 -0.0439,0.5488036 0,0.069559 0.0344,-0.2737665 0.0424,-0.2046386 0.0217,0.1946955 -8e-5,0.3921689 0,0.5880777 0,0.3413993 0.003,0.6828298 0.004,1.024227 0,0.1036508 1.3e-4,0.05012 0,0.1250569 0.22508,0.2060461 0.31821,0.2776027 0.65164,0.5891115 0.44583,0.4165031 0.89067,0.8388889 1.28209,1.3068969 0.25697,0.3072547 0.48321,0.638729 0.72914,0.9549804 V -29.859676 Z m -94.99421,0.04083 c -0.87139,-0.284263 -2.0326,4.621356 -2.54919,8.020182 0.0596,0.07786 0.13897,0.169805 0.17828,0.222209 0.27484,0.366241 0.57753,0.702602 0.89865,1.022159 0.0825,-0.441532 0.15085,-0.842041 0.262,-1.403531 0.20716,-0.562909 0.73394,-2.277902 0.62115,-1.688786 -0.20375,1.064248 -0.54262,2.098018 -0.82475,3.144511 0.0813,0.07964 0.17023,0.152993 0.25476,0.22996 0.21962,-2.104083 0.62268,-3.097093 1.83503,-4.362008 0.19063,-1.541599 0.19783,-3.064183 -0.2682,-4.54546 -0.12244,-0.389181 -0.25998,-0.59104 -0.40773,-0.639236 z m -4.18372,5.469433 c -0.0553,-0.0176 -0.0934,0.296259 -0.11214,0.683679 0.0994,0.04055 0.19828,0.08055 0.29301,0.131258 -0.034,-0.219379 -0.0635,-0.439728 -0.11317,-0.655773 -0.0237,-0.102908 -0.0465,-0.152419 -0.0677,-0.159164 z m 0.38912,0.780314 c -0.0158,0.01345 -0.0265,0.08153 -0.0413,0.109037 0.088,0.05419 0.17231,0.113251 0.25477,0.176734 -0.012,-0.03474 -0.0176,-0.0713 -0.03,-0.105937 -0.0648,-0.18082 -0.12717,-0.22771 -0.18345,-0.179834 z m 102.38703,3.93051 c 0.16822,0.538639 0.28649,0.938009 0.21498,0.751375 -0.0867,-0.226124 -0.1365,-0.464722 -0.20101,-0.698149 -0.008,-0.02768 -0.01,-0.03795 -0.014,-0.05323 z m 0.95549,6.91379 c -0.0603,0.563708 -0.11753,1.127655 -0.16018,1.69292 -0.0161,0.214698 0.0878,-0.422 0.13745,-0.631486 0.003,-0.01314 0.003,0.05428 0.003,0.04082 0.0172,-0.198859 0.0435,-0.397778 0.0455,-0.59738 0.003,-0.168239 -0.014,-0.336565 -0.0259,-0.504878 z m -46.51033,0.227376 c -0.0587,0.0021 0.61071,0.856004 0.8718,1.153935 0.45691,0.521382 1.12567,1.165876 1.8588,1.7249586 0.0453,0.00322 0.0906,0.00565 0.13589,0.0093 -0.91281,-0.9631496 -1.82308,-1.9288436 -2.79363,-2.8329026 -0.0414,-0.03857 -0.0645,-0.05559 -0.0729,-0.05529 z m -9.83971,0.224792 c 0.0568,-0.03159 0.0313,-0.02638 -0.12454,0.04082 -0.31611,0.136317 -0.62791,0.282615 -0.94051,0.426847 0.40683,-0.151247 0.93633,-0.396086 1.06505,-0.467672 z m 1.81953,1.15962 c -0.0157,1.96e-4 -0.0313,3.17e-4 -0.047,5.29e-4 0.0449,0.0176 0.0538,0.02553 0.0822,0.03462 0.11052,0.03546 0.22306,0.06466 0.33487,0.09612 -0.12342,-0.04363 -0.24629,-0.08862 -0.37001,-0.131258 z m 53.81119,0.04909 c -0.0145,-0.106709 0.0222,0.144341 0.0501,0.31936 -0.0167,-0.106399 -0.034,-0.212737 -0.0485,-0.31936 z m 0.0501,0.31936 c 0.0124,0.07819 0.0238,0.156467 0.0362,0.234612 0,-0.01161 -1.1e-4,-0.0151 -0.003,-0.02687 -0.006,-0.06985 -0.0151,-0.09385 -0.0331,-0.20774 z m -42.84646,0.419096 c -0.0491,-0.0088 0.75353,0.8643752 1.03198,1.1947591 0.19521,0.1615874 0.47585,0.4011715 0.73482,0.6227011 0.0634,0.01433 0.20387,0.052029 0.28888,0.072864 -0.47353,-0.4516615 -1.11321,-1.0456228 -1.97869,-1.8283122 -0.0458,-0.0414 -0.07,-0.06076 -0.077,-0.06201 z m 2.05568,1.8903241 c 0.018,0.017179 0.0233,0.023543 0.0408,0.040307 0.0151,0.00298 0.0314,0.010224 0.0465,0.01292 0.0541,0.010795 0.0733,0.013488 0.16227,0.032556 -0.008,-0.00949 -0.0145,-0.018291 -0.0222,-0.027905 -0.083,-0.021373 -0.16042,-0.041469 -0.22738,-0.057878 z m 0.22738,0.057878 c 0.16012,0.041226 0.20608,0.046955 0.43873,0.1111041 0.1365,0.037641 -0.18814,-0.034262 -0.41651,-0.083199 0.1066,0.1328571 0.24601,0.3003929 0.31213,0.3901573 0.21484,0.1818558 0.42932,0.3641436 0.6444,0.5457031 0.0987,0.052647 0.19663,0.1015254 0.29196,0.1400432 0.23675,0.095614 0.47699,0.1818901 0.71882,0.2635496 -0.64717,-0.6134317 -1.5078,-1.3853917 -2.72798,-2.4060547 -0.37095,-0.3103089 0.26858,0.4544054 0.73845,1.0386964 z m -0.18656,-0.017571 c -0.0954,-0.018754 -0.19439,-0.052248 -0.29247,-0.081649 0.31909,0.2720245 0.62947,0.5254355 0.98081,0.7658447 -0.17917,-0.1845141 -0.35975,-0.369883 -0.68834,-0.6841957 z m -0.29247,-0.081649 c -0.0132,-0.011276 -0.0241,-0.020307 -0.0372,-0.031523 -0.0828,-0.018706 -0.19716,-0.049554 -0.25267,-0.060462 0.0985,0.038245 0.19341,0.063062 0.2899,0.091984 z m -2.52233,-1.2045778 c -0.0282,-0.00534 -0.0798,0.00777 -0.13229,0.021704 0.0479,0.00273 0.0957,0.00711 0.14365,0.00982 0,-4.234e-4 0.006,-9.8e-6 0.006,-5.292e-4 0.006,-0.019111 -0.003,-0.028148 -0.0164,-0.031006 z m 0.47387,0.078031 c 0.12526,0.095083 0.2531,0.1829906 0.38137,0.2718181 -0.0856,-0.090066 -0.17184,-0.1795333 -0.25736,-0.2697509 -0.0329,-2.58e-4 -0.0598,-1.051e-4 -0.12401,-0.00206 z M -15.033191,74.683297 c 0.434061,-7.94e-4 1.006001,0.168389 1.764234,0.496094 0.07935,0.0063 0.15967,0.01646 0.241845,0.03255 4.3210548,0.846344 6.6734742,1.922574 7.9028768,3.303159 0,0 5.292e-4,5.29e-4 5.292e-4,5.29e-4 0.085165,0.08127 0.1570712,0.169619 0.2185914,0.266134 0.034444,0.04484 0.067915,0.08993 0.1002522,0.135393 0.019907,2.64e-4 0.037906,0.0011 0.057878,0.0016 0.1473628,0.0028 0.1664253,0.134959 0.144694,0.307991 0.1487524,0.250595 0.2691148,0.510238 0.365869,0.779283 0.08419,0.07813 0.1100833,0.179228 0.096118,0.295587 0.2555549,0.881748 0.281019,1.861873 0.2103231,2.950207 0.044595,0.04757 0.088294,0.0933 0.1333254,0.141595 0.029064,-0.0024 0.058282,-0.0042 0.087333,-0.0067 0.00294,0.03635 0.00584,0.07269 0.00878,0.109038 0.5691396,0.612666 1.1751857,1.286049 1.8174601,2.012796 0.1634726,-0.0013 0.2287289,0.09789 0.2278931,0.265099 0.98677029,1.281211 -0.2854196,3.336399 -0.3891236,4.990913 -0.3430963,5.473819 -0.1442266,3.006309 -0.6061645,7.831045 -0.5204619,3.27638 -0.4958286,4.23283 -3.2049723,3.14606 -0.2628307,0.0842 -0.630365,0.0679 -1.1404989,-0.0532 -1.2125893,0.23396 -2.2929654,0.42862 -3.251998,0.58136 -0.0085,0.008 -0.01731,0.0158 -0.02584,0.0238 -0.0064,-0.006 -0.01319,-0.0109 -0.01964,-0.0165 -0.852274,0.13512 -1.610565,0.23689 -2.283581,0.30489 -2.747029,3.44001 -7.465848,2.84611 -9.530168,-1.78387 -0.252292,-0.0569 -0.456508,-0.13082 -0.618566,-0.22738 -0.198252,-0.0163 -0.389043,-0.0334 -0.594279,-0.0491 -0.398507,-0.0305 0.04203,-0.798406 0.06615,-1.197342 0.06102,-1.00937 0.117267,-1.900193 0.170015,-2.740401 -0.02593,-0.380818 -0.03979,-0.774494 -0.03979,-1.181841 0,-0.252719 -0.0062,-0.505449 0,-0.758095 0.09547,-3.875487 0.215676,-7.752048 0.383956,-11.62513 0.01854,-0.426834 -0.35388,-1.355365 0.06666,-1.280025 1.343105,0.240631 2.667949,0.562009 3.982702,0.926042 0.516454,-1.471446 1.063577,-2.974359 1.781287,-5.00021 0.219474,-0.619498 0.01142,-2.009526 0.640271,-1.875856 0.245762,-0.740069 0.595622,-1.104101 1.235584,-1.105358 z M 302.89365,98.064815 c -0.006,0.0032 -0.0335,0.02658 -0.0863,0.07493 -0.45537,0.416859 -0.88911,0.857174 -1.32501,1.295011 0.0354,-0.02029 0.0951,-0.04633 0.12454,-0.06511 0.35015,-0.358643 1.33027,-1.327402 1.28675,-1.30483 z m -68.06251,0.289388 c 0.0519,0.270743 0.1084,0.540636 0.16588,0.810286 0.003,7.94e-4 0.005,0.0016 0.008,0.0026 0.12663,0.04306 -0.19113,-0.90388 -0.17363,-0.812871 z m 55.99968,7.872897 c -0.42474,0.16424 -0.86633,0.28754 -1.27537,0.48731 -0.38195,0.18654 0.79915,-0.28896 1.19891,-0.43356 0.0172,-0.0115 0.0556,-0.0392 0.0765,-0.0538 z m -7.5773,4.28346 c -0.26265,0.0865 -0.52496,0.17456 -0.7829,0.27389 -0.16155,0.0622 0.331,-0.10346 0.50073,-0.13746 0.0308,-0.006 -0.1061,0.0671 -0.078,0.0527 0.12052,-0.0621 0.24022,-0.12596 0.3602,-0.18914 z m -6.27972,3.84887 c -0.006,10e-4 -0.0353,0.0171 -0.0915,0.0512 -0.45902,0.27654 -0.90998,0.56672 -1.36271,0.85369 0.0101,-0.004 0.0241,-0.009 0.0331,-0.0134 0.41278,-0.2002 1.46535,-0.90073 1.42111,-0.89142 z m -17.81288,5.12423 c -0.0492,-0.007 -0.0979,-0.01 -0.14417,0.005 -0.0607,0.0201 0.14547,0.0223 0.35811,0.0207 -0.0184,-0.001 -0.0495,-0.003 -0.0661,-0.004 -0.0486,-0.003 -0.0986,-0.0144 -0.1478,-0.0217 z m -26.46453,22.89473 h 5.3e-4 5.3e-4 l 5.3e-4,5.3e-4 c 0.10802,-0.005 0.2165,-0.005 0.32504,5.3e-4 1.83147,0.0938 3.04117,0.56436 4.49533,1.46037 0.78454,0.48341 1.5293,1.02871 2.29392,1.54306 1.36362,1.17419 2.39287,2.03341 3.73621,3.3414 0.62756,0.61106 1.25948,1.22253 1.81642,1.89859 0.93021,1.12915 1.82893,2.28914 2.63757,3.50831 0.99874,1.50577 3.47257,6.47422 4.07003,7.63933 0.76716,1.8778 1.65541,4.016 2.34766,5.89111 0.23331,0.63196 0.46459,1.26729 0.63407,1.91927 0.2735,1.05214 0.51605,2.11427 0.69299,3.18688 0.20075,1.21704 -0.0574,2.48459 0.15761,3.69693 -0.017,0.9464 -0.0126,1.46558 -0.0527,2.00712 0.25247,0.33256 0.50051,0.66856 0.73846,1.01131 0.4015,0.57858 0.67156,1.23768 1.00355,1.8588 0.72876,1.36344 1.44995,2.7314 2.17868,4.09484 0.86219,1.40124 1.90834,2.66755 2.90421,3.97081 0.39437,0.0764 0.86342,0.21213 1.42524,0.42065 0.81044,0.30079 2.56754,0.77027 3.04426,1.67742 2.39858,4.56412 1.8224,3.8727 0.10025,7.79229 -0.57393,0.47448 -0.86209,0.72577 -1.14205,0.96376 -0.0206,1.55248 -0.0942,3.10433 -0.19687,4.65501 0.31602,0.23049 0.62084,0.47899 0.84283,0.79582 0.18333,0.26163 0.36063,0.52842 0.53226,0.79892 0.77459,0.25333 1.51183,0.51968 1.75287,0.62632 0.51408,0.22746 1.09487,0.4232 1.45264,0.85679 2.72378,3.30113 2.80651,2.48475 2.62154,4.12998 -0.41886,-1.11202 0.1904,0.45038 0.24702,1.55547 0.0954,1.86549 -0.55565,3.55926 -1.47693,5.1418 -0.21201,0.36424 -0.5129,0.66865 -0.76947,1.00304 -0.69392,0.57894 -1.37085,1.17921 -2.08203,1.73684 -0.10583,0.083 -0.24066,0.11972 -0.36123,0.17932 -0.10758,0.0533 -0.40495,0.24748 -0.32298,0.15968 0.63111,-0.6762 1.50566,-1.1482 1.98387,-1.93993 0.14113,-0.23365 0.21241,-0.49618 0.26199,-0.76791 -1.64579,0.047 -3.29213,0.0807 -4.93818,0.12092 -0.25662,0.52747 -0.53258,1.04632 -0.79997,1.5689 2.4e-4,0.008 0,0.0165 0,0.0248 0.0616,2.23185 -0.275,4.22293 -0.6568,6.39702 0.19401,1.29855 -0.0474,2.09623 -0.39688,3.62976 -0.11775,0.51671 -0.37211,0.99388 -0.51469,1.5043 -0.048,0.17172 -0.14802,1.06039 -0.1757,1.29294 0.17154,1.13208 0.15925,2.212 0.10645,3.3693 -0.0192,0.42102 -0.003,0.85292 -0.11679,1.25884 -0.77325,2.7689 -0.8883,2.76091 -2.03502,4.82658 -0.0828,0.68185 -0.77932,1.11466 -0.96686,1.75596 -0.0301,0.10301 0.037,0.21157 0.0553,0.3173 -0.0416,0.23967 -0.0516,0.48695 -0.12506,0.71882 -0.74374,2.34509 -0.74858,2.2208 -1.64434,4.08605 -0.59372,1.28183 -1.17149,2.56129 -1.85777,3.79719 -0.15843,0.2853 -0.3892,0.53396 -0.50178,0.84026 -0.0779,0.21186 -0.0128,0.45323 -0.0553,0.67489 -0.0809,0.42138 -0.20952,0.83239 -0.31419,1.2485 -0.51092,1.78206 -1.38543,3.4051 -2.15078,5.07928 -0.16189,0.35414 -0.27788,0.57116 -0.31677,0.93586 -0.52987,2.02508 -1.24077,4.01732 -2.43189,5.7583 -0.73438,1.07336 -1.0756,1.43584 -1.84279,2.3332 -1.10239,1.17539 -2.44292,2.05259 -3.61476,3.14556 -0.15509,0.1444 -0.32371,0.27828 -0.45424,0.44542 -0.11415,0.14618 -0.17853,0.32475 -0.27233,0.48474 -0.10446,0.17815 -0.21502,0.3528 -0.32247,0.52917 -1.15453,1.68735 -1.59282,2.23597 -2.99619,3.33105 1.53168,2.79009 -0.44276,6.663 -6.55051,7.60265 -0.54756,0.0842 -1.09991,0.14274 -1.64279,0.2532 -0.30683,0.0897 -0.61405,0.17902 -0.92088,0.26874 -1.4e-4,0.0151 0.0145,0.041 0,0.0449 -1.61057,0.43564 -2.77185,0.73028 -4.30154,0.0853 -0.57067,0.19637 -1.25486,0.22111 -1.65106,0.58447 -2.14974,0.35882 -3.46669,0 -4.88963,-1.39888 -7.9e-4,0.0291 -0.002,0.0582 -0.003,0.0873 0.003,0.003 0.006,0.004 0.009,0.006 0.0114,0.008 0.0375,0.0414 0.0274,0.0315 -0.0121,-0.0119 -0.0241,-0.0233 -0.0362,-0.0351 -0.0579,1.95543 -0.0505,3.90845 0.31885,5.842 0.93877,4.91477 -4.05604,5.6278 -5.00331,0.7147 -0.66193,-3.43218 -0.32023,-6.91891 -0.24909,-10.38128 -0.12755,-0.21301 -0.23955,-0.43584 -0.32504,-0.66661 -0.67568,-1.82663 -0.73914,-2.57395 -0.77153,-4.27056 0.0185,-0.46422 0.0247,-0.92911 0.0558,-1.39266 0.0913,-1.358 0.48033,-2.89732 0.91932,-4.16359 0.0447,-0.0959 0.0268,-0.0613 0.0501,-0.1111 -0.005,-0.0233 -0.005,-0.0482 -0.0103,-0.0713 -0.0247,0.0172 -0.0345,-0.0175 -0.0305,-0.0925 -0.0891,-0.34813 -0.22601,-0.67725 -0.45423,-0.96842 -0.89734,-1.7313 -0.64574,-0.83344 -0.0558,-3.45975 0.17129,-0.76282 0.36395,-1.09053 0.57051,-1.11929 0.36279,-0.0505 0.76823,0.86214 1.17667,1.91873 0.0525,-0.11628 0.10056,-0.23463 0.15399,-0.35036 0.30208,-0.65429 0.90358,-1.14141 1.1436,-1.83295 1.21941,0.34631 2.42768,0.74051 3.63803,1.12601 5.2e-4,-0.0938 -0.0148,-0.1764 -0.006,-0.27646 0.001,-0.007 0.004,0.0114 0.006,0.0172 0.0177,0.0912 0.035,0.18272 0.0527,0.27387 7.9e-4,2.2e-4 5.2e-4,0 0.002,0 -0.0326,-0.26754 -0.0775,-0.53316 -0.11627,-0.79994 0.0252,-0.54356 0.0277,-1.08884 0.076,-1.63092 0.0155,-0.17476 0.0713,-0.34431 0.11523,-0.51418 0.27894,-1.07832 0.71439,-2.10787 1.15859,-3.12642 l 5.3e-4,-5.3e-4 c 2.1896,-5.02081 5.86922,-6.28937 8.30699,-4.99091 0.72368,-1.47447 1.46645,-3.06001 1.9544,-3.98218 0.98483,-1.86121 2.03637,-3.68624 3.05459,-5.52938 0.70927,-1.21484 1.6216,-2.33214 2.12752,-3.64474 2.38914,-6.19855 0.0895,-2.77791 1.51154,-8.16126 0.9369,-3.54684 2.92824,-9.25988 4.69067,-12.80697 1.0736,-2.16076 2.33533,-4.22265 3.50314,-6.33398 0.4378,-0.68364 0.91254,-1.34596 1.36529,-2.02106 -0.008,-1.22799 0.61451,-2.13996 1.40354,-2.91714 0.0265,-0.17067 0.0464,-0.34137 0.0594,-0.51263 -0.021,-0.0362 -0.0421,-0.0723 -0.063,-0.10852 -0.11398,0.26976 -0.30692,0.84453 -0.27802,0.65112 0.0455,-0.30424 0.0812,-0.61426 0.11834,-0.925 -0.56308,-0.97047 -1.12839,-1.9397 -1.72083,-2.89234 -0.19029,0.0251 -0.38168,0.0464 -0.57102,0.0744 -0.0268,0.0108 -0.0539,0.0206 -0.0806,0.0315 -0.37694,0.15413 0.46053,1.39647 0.76275,1.81694 -0.13537,-0.18402 -0.41278,-0.55287 -1.00253,-1.30793 -0.44632,-0.73003 -0.93075,-1.43853 -1.33893,-2.19056 -0.20299,-0.37399 -0.33705,-0.78161 -0.4899,-1.17874 -0.47967,-1.24631 -0.89719,-2.51366 -1.26349,-3.79615 -1.38956,-2.69187 -2.59151,-5.4737 -3.46955,-8.38037 -0.0255,-0.0844 -0.0469,-0.17015 -0.0698,-0.25528 -2.61659,-1.05964 -4.04729,-5.45523 -4.76819,-7.24503 -0.20689,-0.65323 -0.3617,-1.14672 -0.53588,-1.69602 -0.69476,0.47142 -1.40225,0.92277 -2.12545,1.34668 -0.44287,0.25958 -0.69917,-0.50383 -0.92139,-1.40353 -0.004,-0.009 -0.007,-0.0141 -0.0114,-0.0227 -1.2,0.60383 -2.84203,1.39253 -4.84467,2.39883 -0.29364,0.26846 -0.593,0.52711 -0.90175,0.76584 -0.0861,0.0665 -0.14813,-0.0911 -0.21239,-0.21911 -0.17448,0.0442 -0.36073,-0.25949 -0.5333,-0.68161 -0.18669,-0.22574 -0.36932,-0.4546 -0.53227,-0.69763 -0.50056,-0.74659 -0.92879,-1.53879 -1.3932,-2.30839 -0.55887,-1.42459 -0.70106,-1.71313 -1.187,-3.37912 -0.12177,-0.41748 -0.20288,-0.8459 -0.29818,-1.27021 -0.50911,-2.26616 -1.01741,-4.52988 -1.23403,-6.84092 -0.39941,0.0392 -0.8357,-0.0709 -1.0387,-0.36381 -0.49946,-0.72075 -0.91635,-1.49046 -1.30948,-2.27427 v 1.9637 h 5.3e-4 c 0,5.00362 -5.05395,5.00362 -5.05395,0 v -11.15182 c 0,-0.31587 0.0429,-0.63425 0,-0.94722 -0.0101,-0.0736 -0.0978,-0.2137 -0.15245,-0.1633 -0.005,0.005 -0.009,0.013 -0.0119,0.0212 0.0191,0.0805 0.0381,0.16063 0.0563,0.24133 0.0179,0.0791 -0.0882,-0.15521 -0.0563,-0.24133 -0.16406,-0.69268 -0.35194,-1.38109 -0.45424,-2.08514 -0.0783,-0.53925 0.0256,-2.06478 0.0527,-2.59571 0.1652,-0.98382 0.072,-2.7201 0.0589,-2.83807 -0.003,-0.0828 -0.005,-0.16523 -0.007,-0.24804 -0.0296,-1.09413 0.20883,-1.47072 0.59687,-1.44333 h 0.001 c 1.31946,0.0933 4.36143,4.84345 4.4602,1.9265 -0.32045,0.23466 -0.6371,0.52105 -0.9648,0.67851 -0.0416,0.02 0.0765,-0.0523 0.11524,-0.0775 0.0519,-0.0338 0.10808,-0.0607 0.15709,-0.0987 0.16201,-0.12571 0.44135,-0.5078 0.49455,-0.5731 0.0863,-0.1316 0.11345,-0.17378 0.18448,-0.28318 -0.0159,-0.18288 -0.0398,-0.42413 -0.031,-0.41858 0.005,0.003 0.0156,0.0531 0.0346,0.17001 0.002,0.04 0.004,0.0799 0.007,0.11989 0.002,0.0395 10e-4,0.0705 0.003,0.10801 0.98235,-1.51415 0.66988,-1.10977 2.81689,-3.20239 0.0699,-0.0682 0.17297,-0.0918 0.25476,-0.14521 0.25533,-0.16658 0.51129,-0.3331 0.75654,-0.51418 3.68727,-2.72273 -2.48035,1.66807 2.88148,-2.11254 1.48711,-0.79756 1.04944,-0.63871 3.65094,-1.18597 0.1883,-0.0396 0.583,0.0171 0.9772,0.0894 -0.17651,-0.0207 -0.30589,-0.0212 -0.32349,0.015 -0.14976,0.0243 -0.58632,0.14989 -0.43563,0.13229 0.26933,-0.0314 0.53746,-0.0839 0.80511,-0.13953 h 5.3e-4 c 0.48298,-0.10041 0.9647,-0.21156 1.45108,-0.23202 z m -12.00495,7.29981 c -0.28048,0.0112 -0.54991,0.16832 -0.81649,0.36225 0.0102,0.10977 0.0226,0.24458 0.0227,0.25115 0.007,0.58768 -0.0106,1.19236 -0.0367,1.78284 0.22638,-0.25316 0.46652,-0.48118 0.76378,-0.57568 0.82301,-0.26162 1.65798,-0.49402 2.50579,-0.65836 0.0496,-0.01 0.10131,-0.019 0.15297,-0.0284 -0.73731,-0.4482 -1.50021,-0.83903 -2.32183,-1.09761 -0.0914,-0.0288 -0.18137,-0.0397 -0.27026,-0.0362 z m 10.45982,2.78536 c 8e-4,0.004 0.0109,0.0125 0.032,0.0274 0.15848,0.11156 0.3211,0.23007 0.49351,0.32194 0.0633,-0.01 0.11785,-0.0168 0.15555,-0.0165 -0.0278,-0.0156 -0.0547,-0.0327 -0.0827,-0.0481 -0.159,-0.0874 -0.60341,-0.31043 -0.59842,-0.28474 z m 0.74828,0.37259 c -0.006,0.0115 -0.0415,0.0355 -0.061,0.0527 0.063,0.0242 0.12656,0.046 0.19327,0.0579 0.0177,0.003 0.0396,2.2e-4 0.0584,0.001 -0.0633,-0.0376 -0.12676,-0.0751 -0.19068,-0.11162 z m 0.52555,0.30954 c -0.3715,0.0324 -0.71379,0.0516 -0.98599,0.0651 -0.7202,0.60139 -1.47044,1.16294 -2.24534,1.6924 0.005,0.009 0.008,0.0139 0.0134,0.0233 0.462,0.95372 1.30966,1.67829 1.78491,2.6231 0.0282,0.0561 0.0543,0.11321 0.0822,0.1695 0.17455,-0.0341 0.34232,-0.0525 0.50488,-0.06 1.04592,-0.5668 2.25971,-1.22507 3.77393,-2.06447 -0.89189,-0.81683 -1.26359,-1.13961 -2.45618,-2.16111 -0.15815,-0.0945 -0.31469,-0.19156 -0.47181,-0.28784 z m -8.47339,16.55506 c -0.0931,0.0535 -0.18746,0.10432 -0.28112,0.15658 0.24854,-0.0445 0.49878,-0.0962 0.75293,-0.15555 -0.15628,-5.3e-4 -0.31345,5.3e-4 -0.47181,-0.001 z m -1.27279,0.0956 c -0.0772,0.0192 -0.15292,0.0412 -0.22582,0.0682 -0.37053,0.13734 -0.18019,0.16725 0.24391,0.13074 -0.006,-0.0664 -0.013,-0.13249 -0.0181,-0.19895 z m -228.7493404,0.20102 c -0.00851,-5.3e-4 -0.017984,0.002 -0.020672,0.007 -0.088731,0.18297 -0.074099,0.41931 -0.022738,0.65474 0.00886,-0.0105 0.016915,-0.0232 0.025839,-0.0336 0.01129,-0.20622 0.035069,-0.41204 0.034107,-0.61857 -2.91e-5,-0.006 -0.00802,-0.01 -0.016536,-0.01 z m 4.051949,23.47609 c 0.041966,0.33712 0.082539,0.67444 0.1297078,1.01079 0.047204,0.3366 0.044283,-0.71455 -0.1297078,-1.01079 z m 268.2875014,3.13262 c -0.1093,0.0589 -0.22558,0.10384 -0.33589,0.16072 0.0394,0.12925 0.0838,0.25993 0.10748,0.39687 0.0916,-0.18436 0.17028,-0.37024 0.22841,-0.55759 z m -39.11441,67.05844 c -0.27947,0.0493 -0.63002,0.10651 -1.07642,0.17364 -0.01,10e-4 -0.009,-0.003 -0.0114,-0.005 -0.12911,0.0916 -0.2543,0.18742 -0.37207,0.29249 -0.10551,0.13895 -0.20978,0.27892 -0.31574,0.41754 -0.0962,0.12585 0.16103,-0.27864 0.27698,-0.38654 0.0121,-0.0113 0.0264,-0.02 0.0388,-0.031 0.1096,-0.14435 0.21887,-0.28899 0.32815,-0.43357 -0.13057,0.10378 -0.24398,0.21343 -0.3173,0.31058 -0.77579,1.02778 -1.48632,2.13122 -2.04122,3.29901 1.09416,0.33949 2.19128,0.66659 3.30213,0.9338 0.10754,-0.32385 0.21502,-0.64778 0.32143,-0.97203 0.0615,-0.40595 0.22891,-0.78325 0.3762,-1.16581 -0.13081,-0.81907 -0.29294,-1.63157 -0.50953,-2.43294 z m 2.79569,17.93327 c -0.13562,0.12557 -0.27218,0.25262 -0.41754,0.39224 -0.024,0.023 -0.0346,0.0388 -0.0512,0.0579 0.0139,0.051 0.0316,0.10075 0.0465,0.15142 0.10344,-0.008 0.27706,-0.0592 0.48472,-0.13489 -0.0156,-0.15517 -0.0362,-0.30845 -0.0625,-0.46664 z m 0.18087,3.37396 c -0.55233,0.58439 -1.14525,1.13115 -1.75286,1.65778 -0.0923,0.08 -0.19793,0.14115 -0.30903,0.19481 0.21039,0.071 0.42631,0.13713 0.64802,0.18965 1.26337,0.29964 1.93464,-0.38245 3.4985,-1.06296 0.18137,-0.17854 0.79223,-0.47858 0.54415,-0.53538 -0.86613,-0.19828 -1.74552,-0.33155 -2.62878,-0.4439 z M 79.645267,308.22667 c -0.09971,0.54536 -0.193824,1.09233 -0.314709,1.63193 -0.01789,0.11509 -0.0354,0.23018 -0.05374,0.3452 0.255966,-0.0114 0.511775,-0.022 0.767911,-0.0284 0.184316,-0.004 0.502544,-0.17283 0.553455,0.003 0.292314,1.01742 0.528743,1.73574 0.681612,2.27634 0.05907,0.007 0.114874,0.01 0.174148,0.0164 1.214364,0.1429 1.801808,0.21286 2.634465,0.31163 -0.04796,-0.28221 -0.07239,-0.39545 -0.13901,-0.81701 -0.03515,-0.22241 0.111948,0.43704 0.144177,0.6599 0.0077,0.0531 0.01257,0.10705 0.01963,0.1602 5.250042,0.62278 4.649237,0.55034 14.65802,1.43299 2.813634,0.2481 5.622864,0.57346 8.444444,0.70331 0.0257,0 0.0513,0.003 0.077,0.003 4.6217,-0.12404 9.24369,-0.25543 13.86634,-0.38965 1.06209,2.4e-4 2.1203,0.003 3.17913,-0.0114 0.69991,-0.7031 1.39663,-1.34937 2.01538,-1.90791 -0.11893,0.25138 -0.0945,0.19944 -0.20929,0.44183 0.0599,-0.0415 0.11909,-0.084 0.18087,-0.12298 0.1098,-0.21699 0.195,-0.37992 0.28525,-0.55399 -0.0789,0.0706 -0.17321,0.15897 -0.2558,0.23361 0.0994,-0.21045 0.0716,-0.1509 0.17519,-0.37002 0.15636,-0.11817 0.11739,-0.0877 0.24856,-0.18707 -0.0474,0.0891 -0.11212,0.2159 -0.16795,0.32348 1.58529,-1.41716 2.20821,-1.86896 0.16898,-0.32504 0.14739,-0.27707 0.26156,-0.48249 0.30955,-0.5426 0.84596,-1.05966 2.10606,-1.62703 3.39617,-2.16369 0.18394,-0.19841 0.37633,-0.38883 0.56276,-0.58496 -6.41498,0.10641 -12.83105,0.0953 -19.24689,0.0646 -5.01123,-0.0266 -10.02245,-0.01 -15.033704,-0.005 -0.960916,0 -1.922542,0.0246 -2.88303,0.003 -1.847712,-0.0553 -3.693128,-0.16975 -5.539713,-0.25476 -2.896505,-0.23048 -5.797352,-0.31036 -8.699212,-0.34571 z m 46.679833,4.70824 c -0.005,0.009 -0.0119,0.0243 -0.0165,0.0336 0.10385,-0.0544 0.20798,-0.1085 0.31832,-0.15399 0.3418,-0.14083 0.78129,-0.31395 1.21388,-0.48421 0.035,-0.0405 0.0699,-0.081 0.10491,-0.12142 -0.5818,0.18516 -1.13073,0.41672 -1.62058,0.72605 z m -42.211889,-0.14883 c -0.0078,0 -0.01701,-0.003 -0.02479,-0.003 0.03075,0.18103 0.06466,0.38883 0.08888,0.52398 -0.01916,-0.17362 -0.04092,-0.34763 -0.06408,-0.52088 z m 47.767109,-4.03799 c -0.11473,0.003 -0.22943,0.005 -0.34417,0.007 -0.0575,0.0537 -0.14039,0.10552 -0.16898,0.1602 -0.0137,0.0262 -0.0253,0.0538 -0.0387,0.0801 0.1865,-0.079 0.36856,-0.16443 0.5519,-0.24751 z m 3.82354,1.09606 c -0.0259,0.005 -0.0457,0.005 -0.0718,0.01 0.0155,0.018 0.0322,0.035 0.0475,0.0532 0.008,-0.0212 0.0163,-0.0421 0.0243,-0.063 z m -0.0243,0.063 c -0.0341,0.0898 -0.0678,0.17976 -0.10129,0.26977 0.0965,0.097 0.1933,0.19352 0.26872,0.30644 0.0709,0.1061 -0.19362,-0.166 -0.29042,-0.24908 0.007,-0.019 0.0146,-0.0382 0.0217,-0.0574 -0.0825,-0.083 -0.16385,-0.1669 -0.23203,-0.26045 -1.54737,0.32242 -3.38912,0.89974 -5.08547,1.50378 -0.0337,0.0885 -0.0688,0.17619 -0.10181,0.26509 0.89775,-0.16883 1.79904,-0.32041 2.62723,-0.54258 0.85501,-0.22942 1.77102,0.0108 2.65462,0.0646 0.0408,0.003 0.11919,0.004 0.17622,0.005 0.13214,-0.25754 0.31409,-0.49982 0.52917,-0.73895 -0.15739,-0.18706 -0.30922,-0.37971 -0.46664,-0.5664 z m 19.31975,-0.0568 c 0.0879,0.25974 0.18511,0.56174 0.2713,0.81441 0.0255,-0.25781 0.0584,-0.51485 0.0853,-0.77255 -0.11884,-0.014 -0.2377,-0.0276 -0.35657,-0.0419 z m -24.84035,1.83605 c -0.48419,0.0911 -0.96608,0.18825 -1.43608,0.30491 -0.31506,0.11983 -0.59666,0.22717 -0.88212,0.33951 -0.44387,0.51393 -0.89147,1.02486 -1.33738,1.53686 0.75588,-0.22249 2.18289,-0.75713 3.27214,-1.10432 0.1231,-0.36179 0.25105,-0.72065 0.38344,-1.07696 z m -0.38344,1.07696 c -0.17095,0.50255 -0.33189,1.01097 -0.49247,1.51926 0.55047,-0.464 1.12121,-0.95469 1.73839,-1.50738 0.57388,-0.51393 -0.17005,-0.35483 -1.24592,-0.0119 z m -0.49247,1.51926 c -0.16784,0.1415 -0.33421,0.28126 -0.49609,0.41498 0.13516,-0.18101 -0.20394,-0.20696 -0.81391,-0.1297 0.0328,0.20865 0.0672,0.40203 0.10025,0.60769 0.15298,-0.089 0.30754,-0.1752 0.45734,-0.26974 0.0203,-0.013 0.031,-0.0225 0.0491,-0.0346 -0.1695,0.1388 -0.32848,0.26437 -0.49144,0.39479 0.0751,0.46524 0.15046,0.92776 0.22686,1.37771 0.0315,8e-5 0.0631,-8e-5 0.0946,0 0.051,-0.0304 0.10091,-0.0596 0.15244,-0.0904 0.24052,-0.75578 0.48136,-1.51233 0.72089,-2.27068 z m -0.72089,2.27068 c -0.01,0.0303 -0.0188,0.0607 -0.0284,0.0909 2.06564,0.005 4.13136,0.0101 6.19704,0.014 0.35897,-0.362 0.70534,-0.73337 1.03818,-1.11466 0.0953,0.34004 0.21571,0.72803 0.33641,1.11517 h 1.04593 c -0.10135,-0.27594 -0.18829,-0.55772 -0.24753,-0.8449 -0.0473,-0.22942 -0.005,-0.46844 -0.0171,-0.70228 -0.005,-0.0893 -0.0232,-0.17754 -0.0346,-0.26614 -0.0102,-0.18093 -0.0579,-0.35785 -0.0946,-0.53536 -0.3151,0.42148 -0.64137,0.83468 -0.98857,1.23248 -0.43088,-1.53797 -0.59671,-2.62459 -0.43357,-3.50057 -2.63,1.90143 -4.87633,3.37484 -6.77323,4.51136 z m -2.41794,-3.49437 c -0.003,0.003 -0.006,0.004 -0.008,0.006 0.003,-0.003 0.005,-0.003 0.008,-0.004 z m -0.0212,0.0161 c -0.60959,0.36216 -1.11357,0.86989 -1.57045,1.44642 0.0742,0 0.14848,-1.1e-4 0.22273,-0.003 0.13086,-0.18684 0.26057,-0.37467 0.401,-0.55604 0.27227,-0.35169 0.59398,-0.63971 0.94672,-0.88728 z m -70.818932,0.15605 c -0.161285,-0.023 -0.255405,0.14597 -0.374137,0.69918 0.04265,-0.0196 0.101248,-0.0201 0.185,-0.0377 0.105134,-0.20026 0.205819,-0.39261 0.32091,-0.61235 -0.04742,-0.0238 -0.09333,-0.0436 -0.131773,-0.0491 z m -0.189137,0.66145 c -0.09065,0.17272 -0.192932,0.36852 -0.276469,0.52814 -0.08573,0.47093 -0.184277,1.06172 -0.331245,1.93839 -0.0075,0.2644 -0.01471,0.52927 -0.02223,0.79375 0.08638,0.58838 0.242589,1.17075 0.2589,1.76527 0.01164,0.42434 -0.184806,-0.82936 -0.244946,-1.24954 -0.05632,-0.39349 -0.0955,-0.78915 -0.133326,-1.18494 -0.117914,0.61809 -0.283625,1.44793 -0.48214,2.41173 0.04626,-0.13782 0.08864,-0.27347 0.137975,-0.41288 0.190849,-0.53922 0.02868,-0.0164 -0.210322,0.77565 -0.01008,0.0484 -0.01246,0.0649 -0.02273,0.11422 0.807135,8.7884 0.68204,2.9333 5.029668,-5.60173 -1.67944,0.42137 -2.554618,0.005 -3.054077,-0.29716 -0.324244,0.30856 -0.519711,0.39201 -0.649058,0.4191 z m -0.276469,0.52814 c 0.03074,-0.16888 0.06444,-0.36452 0.09147,-0.49041 -0.08277,0.0379 -0.123677,0.18532 -0.228412,0.75243 0.04188,-0.0803 0.09317,-0.17839 0.136943,-0.26202 z m 71.664358,-0.55293 c -0.004,1.9e-4 -0.0102,0.003 -0.0139,0.005 -0.25633,0.075 -0.50869,0.16333 -0.75757,0.26096 -0.0598,0.12081 -0.11753,0.23611 -0.17984,0.36227 0.13694,-0.004 0.27383,-0.007 0.41083,-0.0124 0.18065,-0.20495 0.36102,-0.40989 0.54054,-0.61598 z m -0.8909,0.3147 c -0.25019,0.102 -0.4976,0.21259 -0.74104,0.33332 0.19695,-0.004 0.39414,-0.0111 0.59118,-0.0161 0.0707,-0.14949 0.0766,-0.16237 0.14986,-0.31731 z m -0.14986,0.31731 c -0.0449,0.0949 -0.0515,0.10679 -0.0956,0.19998 0.0289,-0.003 0.0574,-0.003 0.0863,-0.005 0.0347,-0.0706 0.0642,-0.12904 0.0982,-0.19794 -0.0296,1.6e-4 -0.0593,0.003 -0.0889,0.003 z m -0.5917,0.0175 c -0.0319,0 -0.0637,8e-5 -0.0956,0.003 -0.0188,0.0268 -0.0393,0.0527 -0.0579,0.0796 0.0517,-0.0265 0.10151,-0.0564 0.15348,-0.0822 z m 0.36277,0.62269 c -0.0281,0.007 -0.057,0.0153 -0.0853,0.0228 -0.30782,0.65018 -0.43856,0.92583 -0.69763,1.47277 0.0183,3e-5 0.0365,-8e-5 0.0548,0 0.26713,-0.5498 0.47741,-0.98438 0.72812,-1.4955 z m 25.73693,1.37253 c -0.24668,-0.004 -0.47147,0.0292 -0.56431,0.13486 0.45572,-0.0101 0.91105,-0.0127 1.36581,0.0135 0.29338,0.0167 -0.29666,-0.14081 -0.8015,-0.1483 z m 3.3786,2.02054 c -0.12054,-0.0212 -0.30449,0.0878 -0.56585,0.35761 -2.40035,2.47764 -3.738,5.70069 -5.03794,8.96533 -0.0866,0.72575 -0.17025,1.45203 -0.25425,2.17816 0.96411,-2.01473 1.97677,-4.00008 3.27319,-5.80946 1.75532,-2.44991 -1.04005,3.45657 -3.47214,7.5148 -0.0355,0.30869 -0.0714,0.6173 -0.10697,0.92604 0.82864,-0.92599 2.03558,-2.39162 4.41265,-4.83849 0.3459,-2.60617 2.59509,-9.14564 1.75131,-9.29399 z m -6.05699,13.20644 c 0.0653,-0.56859 0.13318,-1.13675 0.19895,-1.70534 -0.63959,1.33672 -1.26268,2.68308 -1.92443,4.00597 0.10177,-0.0478 0.19934,-0.10467 0.29404,-0.1628 -0.13647,0.17087 -0.27314,0.33992 -0.40669,0.51473 0.0595,-0.047 0.11849,-0.0942 0.17725,-0.14214 0.10309,-0.13285 0.20816,-0.27048 0.31936,-0.42632 -0.0287,0.0188 -0.0593,0.0349 -0.0884,0.0527 0.1094,-0.13697 0.21887,-0.27329 0.33125,-0.40616 0.34548,-0.50681 0.71596,-1.09212 1.09864,-1.73064 z m -1.09864,1.73064 c -0.0818,0.12002 -0.16449,0.24355 -0.24288,0.35346 0.22114,-0.14621 0.4401,-0.33383 0.67386,-0.56534 0.33497,-0.43712 0.65222,-0.92503 0.41135,-0.69659 -0.29627,0.28106 -0.57284,0.58989 -0.84233,0.90847 z M 53.183824,321.44084 c -0.05179,0.20023 -0.09584,0.38071 -0.125574,0.52556 -0.03954,0.19252 -0.05925,0.38743 -0.07338,0.58341 0.05461,-0.36637 0.120637,-0.73588 0.198956,-1.10897 z m 0.36535,7.96335 c 0.101412,0.51329 0.194667,0.95239 0.282671,1.35442 0.01971,-0.17973 0.04442,-0.36155 0.0708,-0.54467 -0.105246,-0.27657 -0.220081,-0.54837 -0.353468,-0.80975 z m 81.173856,14.70141 c -0.0921,0.0929 -0.18439,0.18561 -0.27647,0.27855 0.0347,-0.0317 0.0724,-0.06 0.10594,-0.093 0.0493,-0.0485 0.11377,-0.12378 0.17053,-0.18553 z m -4.55373,2.56418 c -0.0485,0.0982 -0.10412,0.19773 -0.16536,0.29819 0.11687,-0.0935 0.28781,-0.21643 0.38189,-0.29713 h -0.21653 z" />
    </clipPath>
    <clipPath
       clipPathUnits="userSpaceOnUse"
       id="clipPath3778">
      <path
         id="path3780"
         style="fill:#ff0000;fill-opacity:1;fill-rule:nonzero;stroke:none;stroke-width:0.264583"
         d="M -42.132829,97.130505 V 121.174 c 1.159237,1.5126 2.189337,3.43693 2.985865,5.82651 0.143454,0.43037 0.281072,0.86239 0.429948,1.29088 0.91585,0.30795 1.853975,0.59634 2.720763,0.94723 1.689214,-1.89911 3.393697,-2.61524 5.066358,-2.65514 2.655112,-0.0633 5.2304,1.56131 7.538558,2.79467 1.237359,0.92098 2.528713,1.77355 3.711918,2.76314 0.951011,0.79538 1.848874,1.65281 2.727483,2.52852 1.530268,-3.90111 4.4371,-5.86393 7.4145337,-5.86424 4.4821702,-5.3e-4 9.1052952,4.41962 9.35860185,13.26121 0.0538873,1.88091 -0.0989832,3.77202 0.0702799,5.64772 0.12877551,1.47958 0.10684116,1.04163 0.15037842,3.21065 0.0068301,0.34028 -0.01591972,0.87779 -5.1673e-4,1.37925 0.0090027,0.0101 0.02578452,0.0447 0.03255615,0.0599 0.03526455,0.0794 0.06956783,0.15988 0.09508463,0.24288 0.0968707,0.31527 0.26289255,0.84027 0.40669351,1.36736 0.45504367,0.75864 0.58181177,2.19635 0.25734865,4.56923 -0.13130678,0.96028 -0.63972878,2.69724 0.13280842,-1.26401 -0.0447593,-0.70645 -0.0584865,-1.41546 -0.13435872,-2.11925 -0.0345243,-0.32025 -0.13787766,-0.75375 -0.25579835,-1.18597 -1.08226955,-1.80435 -4.02769493,0.24207 -7.20937913,2.73523 -0.3642278,1.49055 -1.0236618,2.73732 -1.8887736,3.70365 2.9771366,1.47236 5.633139,5.03522 6.6140667,10.92078 0.059567,0.3574 0.1537757,0.71079 0.1782837,1.07229 0.1044782,1.54108 0.16609,3.08513 0.208256,4.62917 0.035517,1.30055 -0.037695,7.64755 -0.042375,8.08995 -0.073851,6.97941 -0.027883,-0.18692 -0.066663,8.22534 1.089e-4,3.34556 0.072075,3.27917 -0.2847372,6.94118 -0.076165,0.78168 -0.240554,1.55304 -0.326595,2.3337 -0.088912,0.80671 -0.027231,1.46757 0.022738,2.2624 0.1036415,0.72636 0.093229,1.42771 0.037207,2.12493 H 171.83602 V 97.130505 H -1.8949748 c 1.59044938,17.149175 -15.8606872,18.941615 -17.7968462,1.516187 -0.02978,-0.26805 -0.04157,-0.539181 -0.0894,-0.804601 -0.04279,-0.237466 -0.08954,-0.474207 -0.132809,-0.711586 z m 18.770431,33.213985 c 0.102211,0.11307 0.206301,0.22439 0.309025,0.33694 -8e-6,-0.001 8e-6,-0.002 0,-0.003 -8.47e-4,-0.11682 -0.332935,-0.36022 -0.309025,-0.33383 z m -6.560839,16.65997 c -0.11248,0.20933 -0.241015,0.4102 -0.390158,0.59945 -0.06612,0.0839 -0.129291,0.161 -0.194304,0.24236 0.350387,-0.009 0.741341,-0.10199 1.175639,-0.28577 -0.221909,-0.2076 -0.414237,-0.38853 -0.591177,-0.55604 z m 4.792988,5.33973 c -0.66838,0.34451 -1.333238,0.69334 -1.976107,1.07332 -1.141815,0.28153 -2.25829,0.70185 -3.425629,0.84439 -0.303337,0.037 -0.830697,0.0747 -1.346174,0.11162 0.02156,0.56661 0.04012,1.1335 0.07287,1.69912 -0.201437,2.29982 -0.146222,3.03615 -0.686263,5.08961 -0.155022,0.58944 -0.255399,2.25825 -0.571026,1.73685 -0.3297,-0.54465 0.338632,-1.2275 0.507979,-1.84123 -0.61322,-2.17863 -0.503243,-4.71577 -1.778701,-6.56601 -1.969212,0.0575 -4.103161,0.0354 -5.299935,-0.21963 -0.82264,-0.17526 -1.660822,-0.38364 -2.49959,-0.62166 v 5.81618 c 6.57588,3.49161 13.913334,7.09575 4.769736,8.54366 -1.589918,0.25177 -3.179815,0.50374 -4.769736,0.75551 v 34.77049 c 2.726237,-4.18672 2.667952,-3.99617 5.837888,-7.99693 2.776953,-3.44084 3.941672,-4.88745 4.585248,-5.68802 -0.827098,1.0348 -1.63829,2.07096 2.128035,-2.51096 3.014258,-3.66699 2.885766,-3.46206 5.170228,-6.60321 0.593575,-0.81618 1.227123,-1.60569 1.766301,-2.45877 0.320228,-0.50667 0.536034,-1.07207 0.804085,-1.60817 0.66495,-1.3299 1.389202,-2.48266 2.149223,-3.48557 -0.629375,-5.16026 0.607181,-8.93414 2.682007,-11.174 -2.710896,-1.18323 -5.417476,-3.86476 -7.416602,-8.3628 -0.466688,-1.05005 -0.282752,-0.71333 -0.703833,-1.30379 z m 25.17417397,0.0279 c 0.0080609,0.2102 0.02222717,0.41264 0.0506429,0.58808 0.0068635,0.0424 -0.01843862,-0.41989 -0.02118733,-0.47129 -0.008185,-0.0391 -0.02087517,-0.0777 -0.02945557,-0.11679 z M -4.540808,202.13805 c -1.4390746,0.10037 -3.4668442,2.33645 -5.583122,4.87515 h 7.6625815 c -0.00109,-0.026 -0.00205,-0.052 -0.0031,-0.078 -0.1446499,-3.59046 -0.9220332,-4.87763 -2.0763589,-4.79712 z m -15.601631,1.83916 c -0.746569,0.92839 -1.495532,1.85484 -2.243274,2.78226 -0.0895,0.113 -0.118921,0.14841 -0.202572,0.25373 h 2.416907 c 0.02309,-0.31743 0.06198,-0.63591 0.128674,-0.95705 -0.0086,-0.0932 -0.0178,-0.18632 -0.02481,-0.27957 -0.03,-0.69097 -0.06175,-1.24096 -0.07493,-1.79937 z m 0.110587,2.19987 c -0.01211,0.11249 -0.02283,0.22598 -0.02119,0.29404 0.0031,0.12825 0.06823,0.50705 0.06563,0.37878 -0.0046,-0.22482 -0.02366,-0.44877 -0.04444,-0.67282 z" />
    </clipPath>
    <clipPath
       clipPathUnits="userSpaceOnUse"
       id="clipPath3802">
      <path
         id="path3804"
         style="fill:#ff0000;fill-opacity:1;fill-rule:nonzero;stroke:none;stroke-width:0.264583"
         d="M -23.434745,7.8584351 V 57.331901 l 3.437516,-0.331245 c 0.182158,-8.4768 4.544324,-12.726874 8.917802,-12.726874 3.942667,0 7.8805145,3.44986 8.7524373,10.338906 0.3231155,1.093592 0.5748543,2.294583 0.738973,3.60753 0.070421,0.56337 0.087891,0.72049 0.1126546,0.942579 0.84381367,0.02989 0.7960854,0.180522 0.048059,0.424264 0.030784,0.31563 0.0661,0.723112 0.1798339,1.924431 0.063472,0.67042 0.2074683,1.338768 0.1834514,2.011762 -0.057196,1.602743 -0.1960947,3.205247 -0.4258138,4.792472 -0.114655,0.7922 -0.306949,1.583132 -0.5374349,2.367815 0.2180148,0.887275 0.4429971,1.773031 0.6857462,2.654617 2.4184977,8.783214 0.2413283,-0.893249 2.9130005,10.378178 0.075873,0.320101 0.059617,0.65527 0.0894,0.982888 0.5038795,5.542674 -0.91369016,9.498771 -3.1414103,11.773439 H 213.56526 c -0.18066,-0.35388 -0.24638,-0.456922 -0.31213,-0.573608 -1.98312,0.377481 -2.54647,0.933288 -2.54403,-0.401008 -0.002,-0.04622 -0.002,-0.09237 -0.006,-0.138494 -0.0106,-0.152347 -0.0213,-0.304776 -0.0357,-0.456819 -0.0474,-0.503047 -0.11085,-1.005567 -0.13487,-1.510501 -0.11318,-0.453117 -0.12252,-0.852262 -0.0527,-1.195276 -0.0475,-0.973087 -0.098,-1.946682 -0.17984,-2.917134 -0.24364,-2.889864 0.0797,1.793711 -0.19327,-1.939933 -0.006,-0.08169 0,-0.164082 0,-0.245981 h -5.2e-4 c 0,-1.754801 0.70391,-2.810248 1.55236,-3.172417 0.008,-0.0082 0.007,-0.02223 0.0212,-0.02582 0.001,-2.64e-4 0.003,-7.94e-4 0.004,-0.0011 -0.10196,-0.638358 0.0415,-0.606854 1.03559,-0.589111 -0.004,-0.173122 -7.9e-4,-0.310306 0.0134,-0.422714 -0.007,-0.08732 -0.0125,-0.174636 -0.0181,-0.261998 -0.0628,-0.07693 -0.0154,-0.381553 -0.0134,-0.289388 0.002,0.09649 0.007,0.193069 0.0134,0.289388 0.007,0.0091 0.0161,0.0159 0.0269,0.01757 0.0194,0.003 0.039,0.0048 0.0584,0.0078 0.099,-0.178681 0.30819,-0.239442 0.72606,-0.298172 0.0193,-0.33496 0.0515,-0.659109 0.10128,-0.939996 0.0509,-0.287086 -0.0384,-0.771459 0.24495,-0.840258 0.14232,-0.03456 0.26581,-0.06551 0.39791,-0.09818 -0.0432,-0.221084 -0.0369,-0.41192 0.14056,-0.495578 0.17951,-0.08464 0.36978,-0.169196 0.55914,-0.253214 -2.72555,-2.053104 -5.14615,-3.340016 -6.90191,-2.953309 -0.66205,1.143114 -1.35184,2.276391 -1.94872,3.448886 -0.0577,0.476904 -0.11452,0.954239 -0.17363,1.43092 0.0134,0.08262 0.0236,0.142682 0.0372,0.226343 0.15619,0.700955 0.31043,1.402236 0.38912,2.110465 0.10156,0.914022 -0.14428,-0.601517 -0.38912,-2.110465 -0.0142,-0.06371 -0.0276,-0.127503 -0.0419,-0.191204 -0.1266,1.018905 -0.26391,2.036096 -0.44287,3.046844 -0.0742,0.419013 -0.0366,-0.85036 -0.0372,-1.275892 -0.001,-0.703781 0.007,-1.2891 0.0305,-1.883087 -0.0421,0.101139 -0.0866,0.201295 -0.12661,0.303339 -0.0977,0.249185 -0.1685,0.551585 -0.22118,0.884185 -0.0725,1.195586 -0.0666,2.589614 0.0279,4.206459 0.0189,0.322432 0.038,0.644951 0.0568,0.967383 0.0253,0.254701 0.0514,0.548704 0.0739,0.763262 0.0155,0.147495 -0.037,-0.294142 -0.0553,-0.441317 -0.006,-0.107299 -0.0123,-0.214646 -0.0186,-0.321945 -0.15413,-1.552001 -0.32171,-3.679584 -0.0853,-5.173842 0.0713,-1.175356 0.22025,-2.155124 0.4377,-2.962095 -5e-5,-0.0064 7e-5,-0.01273 0,-0.01913 -0.057,-0.440235 -0.0898,-0.881983 -0.076,-1.327052 0.18155,-5.837952 1.67185,-9.770306 4.78834,-14.380001 0.80282,-1.187479 1.62223,-2.287894 2.45308,-3.31711 -0.22184,-0.679966 -0.44935,-1.358122 -0.66301,-2.040702 -0.0672,-0.21467 -0.24589,-0.475734 -0.35605,-0.71365 -20.95443,-14.0358 -14.41643,-34.686455 3.8778,-34.398935 4.87097,0.07655 10.5751,1.637667 16.815,5.203301 0.19184,0.10962 0.28038,0.163222 0.44752,0.258382 V 7.8584351 Z M 205.49133,81.570216 c 0.0913,-0.219284 0.18664,-0.43657 0.2868,-0.652158 -0.0771,-0.374944 -0.14662,-0.750403 -0.19585,-1.127062 -5.3e-4,0.0016 -5.3e-4,0.0029 -0.001,0.0047 0.002,0.175194 1.1e-4,0.349663 -0.0139,0.520383 -0.0376,0.45027 -0.0598,0.853789 -0.076,1.254188 z m 0.62787,-1.353923 c 0.0675,-0.558022 0.13593,-1.115899 0.21084,-1.672767 0.20651,-0.339955 0.47268,-0.815713 0.75654,-1.331701 -0.54036,0.397954 -0.98488,1.038923 -1.31516,1.966288 -0.0388,0.334047 -0.0792,0.67487 -0.0873,0.879533 0.0305,0.174186 0.088,0.536229 0.12919,0.784966 0.0987,-0.210153 0.20041,-0.419034 0.30593,-0.626319 z m 0.96738,-3.004468 c 0.29866,-0.219951 0.62639,-0.366242 0.98134,-0.444418 0.85045,-1.468414 1.65032,-2.955182 2.11977,-4.574397 0.10854,-0.374417 0.1194,-0.526854 0.0558,-0.50953 -0.27558,0.07507 -1.95136,3.336978 -3.15691,5.528345 z M -23.434745,78.45361 v 0.988052 c 0.07958,0.01894 0.170678,0.0417 0.252698,0.0615 0.0015,-0.02326 0.0032,-0.0465 0.0047,-0.06976 -0.04866,-0.316818 -0.09881,-0.633402 -0.146761,-0.950328 -0.03683,-0.0099 -0.07374,-0.01958 -0.110588,-0.02946 z m 0,2.449462 v 15.569591 h 3.397725 c -0.428185,-2.327677 -0.868864,-4.653084 -1.304313,-6.979417 -0.47466,-2.535819 -0.990716,-5.064109 -1.431954,-7.605739 l -0.558105,-0.05633 c 0.01905,-0.285208 0.03634,-0.570505 0.05478,-0.85576 -0.05264,-0.0241 -0.103163,-0.04834 -0.15813,-0.07235 z m 243.011005,11.3714 c -0.76741,0.03286 -1.53549,0.02357 -2.30374,0.0052 l -0.009,0.432015 c -0.0146,0.695838 -0.0134,0.642696 -0.0165,0.987536 0.008,0.01913 0.008,0.02164 0.0171,0.04289 0.11358,0.283753 0.17435,0.58496 0.20981,0.887802 -0.002,-0.0065 -0.004,-0.01323 -0.006,-0.0181 -0.14487,-0.335936 -0.32388,-0.656346 -0.48576,-0.984435 -1.25812,-2.550316 -1.4728,1.019649 -1.99367,2.845303 h 17.87901 v -1.57303 c -1.09575,-0.697103 -2.26208,-1.571739 -3.47317,-2.562117 -4.45671,3.863015 -8.19898,5.360623 -9.81801,-0.06305 z" />
    </clipPath>
    <clipPath
       clipPathUnits="userSpaceOnUse"
       id="clipPath3838">
      <path
         id="path3840"
         style="fill:#ff0000;fill-opacity:1;fill-rule:nonzero;stroke:none;stroke-width:0.264583"
         d="m 133.39185,110.46716 v 187.42266 c 2.12839,-0.0727 3.52644,-0.10226 7.11843,-0.16899 8.51918,-0.11348 4.87008,-0.0908 11.73262,-0.10644 1.74551,-0.004 3.49138,-0.008 5.23689,-0.0114 1.16812,-0.003 2.08626,-0.003 3.28559,0.0269 0.32786,0.008 0.65475,0.03 0.98237,0.0449 6.70349,0.30469 8.08296,5.51209 4.50257,7.83415 4.65231,1.93276 3.80407,7.59291 -2.54662,8.22741 -0.2057,0.54464 -0.54912,1.06386 -1.03095,1.52185 h 75.48842 V 181.0029 c -5.07246,0.32096 -11.00918,-1.72487 -16.79846,-6.91792 -9.33429,-0.82888 -8.98171,-3.55533 -9.87278,-12.80956 -0.0167,0.11792 -0.009,0.46507 -0.0501,0.35347 -0.0863,-0.23083 -0.0726,-0.48765 -0.0909,-0.73329 -0.0364,-0.48804 -0.0712,-0.97603 -0.1018,-1.46451 -0.25212,-0.7878 -0.5383,-1.69942 -0.85886,-2.77864 -0.87983,-1.76391 -1.87669,-3.96441 -1.78025,-4.80126 0.003,-0.0262 0.007,-0.0523 0.0103,-0.0785 0.15973,0.70615 0.42647,1.23831 0.85524,1.62367 -0.24921,-0.94214 -0.4891,-1.90286 -0.70176,-2.85047 -0.0527,0.40796 -0.10658,0.81589 -0.154,1.22421 -0.17203,-0.76232 -0.21669,-1.7393 -0.20515,-2.94917 0.10697,0.56365 0.22813,1.14111 0.35915,1.72496 0.37882,-2.92994 0.89683,-5.84773 1.57044,-8.72712 -0.60898,1.05579 -1.21565,2.11284 -1.81074,3.17603 -0.0551,1.48783 -0.10897,2.74454 -0.11937,3.82096 -0.6681,-3.52232 -0.79082,-6.48449 0.57929,-6.81095 0.45756,-0.10903 0.91654,-0.20324 1.37615,-0.29094 0.0308,-0.13077 0.0668,-0.26009 0.0982,-0.39067 -0.003,-0.0135 -0.0285,-0.0776 -0.0186,-0.0594 0.008,0.0144 0.0147,0.0293 0.0222,0.0439 0.0129,-0.0536 0.0273,-0.10666 0.0403,-0.1602 1e-4,-0.005 -5.3e-4,-0.0103 -5.3e-4,-0.0155 -0.0626,-0.10427 -0.12157,-0.20975 -0.16949,-0.31988 -0.0164,0.0606 -0.0318,0.1207 -0.045,0.18139 -0.0257,-0.0835 -0.0501,-0.1674 -0.0687,-0.2527 -0.0805,-0.3677 -0.01,-0.77409 0.1235,-1.14619 2.3e-4,-7.9e-4 1.9e-4,-0.001 5.3e-4,-0.002 0.036,-0.11117 0.0753,-0.21334 0.11421,-0.29921 -0.004,-0.14108 -0.0121,-0.28221 -0.004,-0.42271 0.007,-0.11096 0.0167,-0.22156 0.0264,-0.33228 -0.11685,-0.38421 -0.0263,0.17972 -0.11059,-1.05162 -5e-5,-7.9e-4 5e-5,-2.6e-4 0,-10e-4 1.4e-4,2.4e-4 5.3e-4,7.9e-4 5.3e-4,10e-4 -8e-5,-10e-4 -5.3e-4,-0.002 -5.3e-4,-0.003 -5e-5,-5.3e-4 -5.2e-4,0.001 -5.2e-4,-0.002 v -0.001 c -1.6e-4,-0.002 1.5e-4,-2.6e-4 0,-0.003 -0.0145,-0.0487 -0.0293,-0.0973 -0.0408,-0.14676 -0.12726,-0.54712 -0.10699,-0.43605 -0.14779,-0.83044 -0.008,-0.13067 -0.0163,-0.26094 -0.0222,-0.39171 -0.005,-0.1144 0.007,-0.17582 -5.3e-4,-0.29352 -0.007,-0.10458 -0.024,-0.20856 -0.031,-0.31316 -0.0297,-0.45031 -0.0255,-0.40371 -0.0171,-0.74311 0.002,-0.0648 -0.003,-0.12977 0.002,-0.1943 -0.0331,-0.19661 -0.0641,-0.39404 -0.0543,-0.59428 0.001,-0.36846 0.008,-0.73704 -0.005,-1.10536 -0.006,-0.3423 -0.007,-0.67942 0.0119,-1.02164 0.0184,-0.34109 0.0242,-0.15459 0.0372,-0.54364 0.003,-0.0893 0,-0.17891 0,-0.2682 h 0.002 c 0,-1.69456 0.63322,-2.73708 1.42265,-3.13263 0.45178,-0.97088 1.19517,-1.45665 1.92908,-1.45365 l 5.3e-4,5.3e-4 h 5.3e-4 5.3e-4 c 1.15248,0.006 2.26314,1.18712 2.11149,3.4618 -0.007,0.11168 -0.0272,0.22303 -0.0222,0.33486 0.006,0.12725 0.0372,0.25205 0.0543,0.37828 0.0197,0.14515 0.039,0.29071 0.0563,0.43614 0.0123,0.10258 0.15992,1.37319 0.18293,1.60507 0.0402,0.40513 0.0755,0.81057 0.11317,1.21595 0.0347,0.40223 0.0686,0.80452 0.10439,1.20665 0.23504,-0.087 0.36357,-0.14172 0.46819,-0.14005 0.20842,0.003 0.34552,0.22222 1.15858,0.81597 0.08,0.0585 0.0658,0.18726 0.0946,0.28216 0.0381,0.12564 0.0746,0.25178 0.11162,0.37775 0.0258,0.002 0.0505,0.008 0.0734,0.0202 0.34968,0.18902 0.6549,0.45112 0.98237,0.67645 0.007,0.0207 0.005,0.0148 0.0114,0.0336 0.18369,-0.16554 0.39942,-0.2496 0.61547,-0.2496 0.55844,0 1.11724,0.55316 1.11724,1.65881 0,0.0297 -0.003,0.0593 0,0.0889 0.0168,0.15581 0.0399,0.31114 0.0594,0.46664 0.01,0.0788 0.0168,0.15811 0.0248,0.23719 0.0295,0.009 0.057,0.0219 0.078,0.045 0.15277,0.16738 0.28199,0.35338 0.40463,0.54467 0.0172,0.0206 0.0339,0.0415 0.0496,0.063 0.0149,0.005 0.0291,0.011 0.0439,0.0165 0.23253,0.0863 0.46526,0.17235 0.69712,0.26045 0.12701,0.0483 0.25034,0.10575 0.37775,0.15296 0.0252,0.009 0.0511,0.0153 0.077,0.0222 h 10e-4 c 0.80285,0.22951 1.2144,0.67879 1.30173,1.11621 4.78581,0.60689 9.59518,1.7165 14.35054,2.76934 v -33.87442 z m 76.98445,27.01954 h -5.2e-4 c 2.6e-4,7.9e-4 7.9e-4,0.002 0.001,0.003 -9e-5,-0.001 -5.3e-4,-0.002 -5.3e-4,-0.003 z m -0.25063,-2.86443 c 5.3e-4,0.0104 8e-4,0.0242 0.002,0.031 0.004,0.0311 0.0241,0.12283 0.0191,0.092 -0.006,-0.041 -0.0137,-0.0819 -0.0207,-0.12299 z m 0.23616,2.6572 c -2.6e-4,-0.005 -7e-5,0.011 0,0.016 0.002,0.0129 0.002,0.0258 0.004,0.0387 -0.002,-0.0217 -0.002,-0.0321 -0.004,-0.0548 z m 0.0155,0.20981 c 0.002,0.023 0.002,0.046 0.007,0.0687 0.006,0.0327 0.0437,0.1249 0.0367,0.0925 -0.0122,-0.0543 -0.028,-0.10778 -0.0439,-0.16123 z m 8.12509,0.41238 c -0.0185,0.035 -0.01,0.0178 -0.0119,0.0677 0.002,-0.003 0.003,-0.007 0.005,-0.01 0.009,-0.0169 0.005,-0.0386 0.007,-0.0579 z m -0.0465,0.10232 c 1.4e-4,0.008 0.002,0.0164 0.003,0.0248 l 0.003,-0.006 c -0.004,-0.0149 -0.006,-0.0266 -0.006,-0.0186 z m -7.95456,0.58601 c 0.004,0.0488 0.0105,0.0974 0.0217,0.14004 0.007,0.0286 0.0442,0.10937 0.0372,0.0806 -0.0238,-0.0949 -0.0426,-0.16387 -0.0589,-0.22066 z m -0.20618,2.40553 c 0.0277,0.0901 0.0564,0.18028 0.0785,0.27182 0.021,0.087 -0.0551,-0.17063 -0.0827,-0.2558 0.001,-0.006 0.002,-0.0107 0.004,-0.016 z m 0.45371,0.11421 c -0.012,0.0208 -0.0241,0.0417 -0.0362,0.0625 0.0304,0.0276 0.0605,0.0554 0.0915,0.0822 -0.0174,-0.0487 -0.0373,-0.0963 -0.0553,-0.14469 z m -0.11937,0.20877 c -0.0165,0.0286 -0.0331,0.0572 -0.0496,0.0858 0.0129,0.0474 0.0336,0.12048 0.0212,0.0858 -0.009,-0.0258 -0.0174,-0.0523 -0.0253,-0.0786 -5.2e-4,0.001 -0.001,0.002 -0.002,0.003 0.006,0.0597 0.0233,0.12233 0.0341,0.18138 0.011,0.0246 0.0222,0.0492 0.0331,0.0739 0.0713,-0.013 0.14308,-0.0211 0.21445,-0.0336 -0.0771,-0.1052 -0.15389,-0.21071 -0.22582,-0.31781 z m -0.10645,0.18552 c -0.0389,0.0674 -0.0774,0.13512 -0.11628,0.20257 0.0513,-0.01 0.10313,-0.0148 0.15452,-0.0243 -0.01,-0.0539 -0.0243,-0.10782 -0.031,-0.16174 -0.003,-0.005 -0.005,-0.011 -0.007,-0.0165 z m 1.47639,20.1998 c 0.0348,0.31677 0.0851,0.60782 0.1571,0.85938 0.0853,0.29783 0.28796,0.54891 0.43202,0.82321 -0.19536,-0.56122 -0.39386,-1.12134 -0.58912,-1.68259 z M 134.6941,313.66045 c -0.43407,0.007 -0.86818,0.0135 -1.30225,0.0206 v 1.57716 h 1.35548 c -0.003,-0.41632 -0.003,-0.83278 5.3e-4,-1.24952 -0.0187,-0.11602 -0.0354,-0.23223 -0.0537,-0.3483 z" />
    </clipPath>
    <clipPath
       clipPathUnits="userSpaceOnUse"
       id="clipPath3958">
      <path
         id="path3960"
         style="fill:#ff0000;fill-opacity:1;fill-rule:nonzero;stroke:none;stroke-width:0.264583"
         d="m -29.803865,220.22325 v 15.90652 c 0.217527,-0.24766 0.463809,-0.47835 0.668176,-0.7338 2.215692,-2.76964 4.547109,-4.53098 6.771163,-5.47254 1.291644,-5.64355 4.857335,-8.46873 8.425842,-8.46873 v 5.3e-4 c 3.394926,0 6.7873084,2.55679 8.2217203,7.66464 2.6519772,1.93988 4.6446777,5.8868 4.6446777,11.85768 0,0.26805 -0.00809,0.53615 0,0.80408 0.037553,1.24396 0.13692497,2.48587 0.16846521,3.73001 0.0314781,1.24168 0.0434965,2.48331 0.0542602,3.72535 0.007499,0.86539 0.0265463,1.73172 5.1594e-4,2.59674 -0.0445303,1.48009 -0.14159934,2.95788 -0.21239005,4.43694 -0.4736034,4.22036 -0.2440474,8.46084 -0.1658814,12.69174 -4.683e-4,1.21113 0.022978,2.42367 -0.109554,3.62665 0.2275579,0.0343 0.1946693,0.0592 -0.011369,0.0786 -0.037043,0.31893 -0.077666,0.63765 -0.1415934,0.95499 -0.1204411,0.59777 -0.3369229,1.17194 -0.5053955,1.75802 -1.8374766,6.39202 -4.0416127,4.67358 -6.3096925,0.95293 -4.7788225,-0.40865 -9.5056575,-1.59298 -14.2683795,-2.24174 -0.218326,-0.0297 -0.355733,-0.0547 -0.552421,-0.0832 -0.06645,0.14954 -0.133256,0.29892 -0.199471,0.44857 -0.153956,0.3479 -0.307009,0.69591 -0.457336,1.0454 -0.03462,0.0892 -0.06956,0.17965 -0.10232,0.25839 -0.02862,0.0688 0.05124,-0.14031 0.08062,-0.20878 0.0071,-0.0167 0.01457,-0.033 0.0217,-0.0496 0.173785,-0.44794 0.360357,-1.00976 0.469739,-1.52239 -4.228272,-0.6264 -3.230904,-0.94914 0.03979,-1.11104 -0.01463,-0.0451 -0.02546,-0.0948 -0.04754,-0.13073 -1.519095,-2.47102 -3.5811,-4.54744 -5.574336,-6.67401 1.989225,12.15327 3.844156,13.98773 0.438216,14.76706 -0.104619,0.60079 -0.519904,1.00291 -1.347205,1.14205 V 308.3854 H 80.767678 c -0.04852,-0.0169 -0.06764,-0.0228 -0.120922,-0.0414 -0.287827,-0.10062 -0.572387,-0.21658 -0.840259,-0.36224 -0.329443,-0.17915 -0.64068,-0.3911 -0.945679,-0.60925 -0.185841,-0.13296 -0.395107,-0.25318 -0.523999,-0.44186 -0.129881,-0.1901 -0.224978,-0.40039 -0.315225,-0.61338 -1.056169,0.0108 -2.112475,0.0122 -3.168801,-0.003 -1.934599,-0.006 -2.840886,0.34703 -3.449402,-0.0517 -0.0048,5e-5 -0.0097,-5e-5 -0.01447,0 -0.57136,0.0618 -1.306328,0.42027 -1.597838,-0.0279 -0.206131,-0.31692 -0.15354,-0.6921 -0.03824,-1.08159 -0.111384,-0.41857 -0.167193,-0.82241 0.06149,-1.15134 0.333396,-0.47955 1.16831,0.013 1.752348,0.018 0.0019,3e-5 0.0095,0 0.01138,0 0.0021,-2e-5 0.0055,6e-5 0.0078,0 0,0 5.29e-4,0 5.29e-4,0 0.293007,-0.13549 0.675304,-0.11186 1.251603,-0.0584 0.06168,-0.0562 0.126527,-0.10575 0.193786,-0.14676 0.03097,-0.0188 0.06224,-0.0358 0.09405,-0.0517 -0.04084,-0.14703 0.08855,-0.42767 0.463537,-0.9472 -0.04726,-0.0619 -0.0913,-0.12103 -0.131257,-0.17624 -0.01889,-0.003 -0.03796,-0.006 -0.05684,-0.009 -0.212243,-0.0364 -0.413059,-0.12202 -0.619601,-0.18293 -0.05042,-0.0973 -0.09931,-0.19521 -0.148828,-0.293 -0.401243,-0.0145 -0.230222,-0.0172 -0.0093,-0.018 -0.0013,-0.003 -0.0024,-0.005 -0.0036,-0.007 -0.06513,-0.003 -0.219311,-0.005 -0.416512,-0.008 0.01193,0.0161 0.02818,0.027 0.04651,0.0351 -0.06565,-0.0135 -0.124992,-0.0254 -0.189135,-0.0383 -0.0398,0 -0.02154,-2.6e-4 -0.06563,0 0.0016,0.0122 0.0032,0.0241 0.0047,0.0362 -0.28461,-0.091 -0.216069,-0.0867 -0.05168,-0.0563 0.0079,-0.0527 0.01495,-0.10541 0.02273,-0.15814 -0.03881,-0.27797 -0.08469,-0.55531 -0.127122,-0.83302 -0.04758,-0.18251 -0.09227,-0.36605 -0.14056,-0.54726 -0.0087,-0.0325 0.03965,-0.1129 0.05633,-0.0837 5.29e-4,0 0.0011,0.003 0.0016,0.003 -0.01963,-0.19225 -0.03307,-0.38486 -0.03514,-0.57827 -7.94e-4,-0.0833 0.166309,-0.0169 0.249597,-0.0164 0.846215,0.004 1.179158,0.0394 1.904794,0.0677 0.08221,-0.3093 0.218718,-0.71969 0.411861,-1.26918 0.02029,-0.0577 0.06347,-0.0881 0.118856,-0.10284 0.06023,-0.21924 0.18429,-0.12857 0.286287,0.003 0.02133,0.003 0.04241,0.005 0.06356,0.008 -0.281379,-0.70495 0.0026,-0.509 0.33383,-0.004 0.30168,-0.0278 0.60384,-0.0491 0.905886,-0.0718 -0.0076,-0.007 -0.01516,-0.013 -0.02273,-0.0196 0.140629,-0.4131 0.189002,-0.87003 0.42168,-1.23921 0.0813,-0.12901 0.246851,-0.17208 0.402558,-0.21394 -0.01569,-0.13882 0.0061,-0.22034 0.08785,-0.21238 0.05152,0.005 0.127553,0.0462 0.231511,0.1297 0.27079,-0.0493 0.561221,-0.0436 0.826307,-0.0444 1.011788,-0.004 1.046276,0.003 2.062406,0.0254 1.867786,0.0397 3.736147,0.0875 5.604309,0.10594 0.402058,0.004 0.804058,0 1.206127,0 h 1.568897 0.726053 c 0.708094,0 1.188199,0.22957 1.442808,0.54104 0,0 5.29e-4,0 5.29e-4,0 0.705657,0.26527 0.941237,0.86048 0.707967,1.34874 0.145748,0.3768 0.01582,0.79309 -0.364318,1.07334 0.963998,0.69667 0.462994,2.02583 -1.199928,1.85311 -0.01886,0.1224 -0.04397,0.27533 -0.0708,0.47078 5.29e-4,0.004 0.0011,0.009 0.0016,0.0135 0.354505,0.003 0.709404,-0.007 1.064019,-0.013 h 5.3e-4 c 0.06636,-0.005 0.124153,-0.006 0.176733,-0.003 0.35178,-0.005 0.703437,-0.005 1.054717,0.0124 0.22026,0.0109 0.683352,-0.0693 0.644922,0.1478 -0.174337,0.98507 -0.405596,1.59663 -0.720887,1.9699 0.01262,0.0386 0.02492,0.0764 0.03824,0.11629 0.01344,2.1e-4 0.02687,0 0.04031,0 0.01749,0 -0.01974,0.0625 -0.02532,0.046 -0.0054,-0.0161 -0.0097,-0.0306 -0.01498,-0.0465 -0.04858,0 -0.09714,0 -0.145727,0 -0.39316,0.3791 -0.908037,0.44847 -1.5875,0.42839 0.07371,0.41609 0.03186,0.8323 -0.202054,1.13326 -0.421709,0.54264 -1.374217,0.0313 -2.061374,0.0393 -0.05221,0 -0.0736,0 -0.12454,0.003 -0.309094,0.56094 -0.23127,0.47731 -0.816488,1.06971 -0.108421,0.10975 -0.205523,0.23744 -0.338482,0.31576 -0.06361,0.0374 -0.12791,0.0737 -0.192751,0.10903 -0.0625,0.10419 -0.141809,0.20029 -0.209291,0.30125 -0.132797,0.19873 -0.239686,0.31973 -0.366384,0.41188 H 101.06438 V 220.22325 Z M 77.12139,296.95809 c -0.07076,0.013 -0.140546,0.0297 -0.207737,0.0512 -0.03571,0.0114 -0.07335,0.0212 -0.111623,0.0315 0.03417,0.3021 0.245168,0.87325 0.420645,1.39887 0.248733,-0.0122 0.497459,-0.0243 0.74621,-0.0362 0.04024,-0.1333 0.09003,-0.28562 0.166915,-0.48678 -0.279887,-0.26789 -0.559858,-0.53568 -0.839742,-0.80357 -0.06596,-0.0631 -0.123399,-0.11385 -0.174668,-0.15505 z m -5.360395,3.5197 c 0.02141,0.20987 0.05072,0.41921 0.08268,0.62839 0.04935,0.18928 0.102833,0.37711 0.166915,0.56068 0.02759,-0.19214 0.05455,-0.38442 0.08113,-0.57672 -0.107096,-0.20587 -0.215718,-0.41079 -0.33073,-0.61235 z m 0.187069,1.61954 c -0.0011,0.006 -0.0021,0.0127 -0.0031,0.019 0.03628,0 0.01643,0 0.05012,0 -5.29e-4,-0.004 -0.0011,-0.008 -0.0016,-0.0119 -0.01548,-0.003 -0.03132,-0.006 -0.04547,-0.008 z M -28.45666,280.83145 c 0.163743,-0.94038 -0.43353,-2.36747 -1.347205,-3.99823 v 4.23024 c 0.508455,-0.073 0.972846,-0.14639 1.347205,-0.23201 z m 7.720975,-9.54207 c -0.416956,-0.003 -0.833943,1.6e-4 -1.251086,0.005 -0.103889,0.27493 -0.208169,0.54965 -0.310059,0.82529 -0.02719,0.24344 -0.05575,0.49924 -0.07596,0.70744 3.27361,-0.12091 7.838765,-0.12229 12.075231,-0.11316 -0.147462,-0.28271 -0.294653,-0.55576 -0.441833,-0.83873 -3.330176,-0.2816 -6.660472,-0.56081 -9.996289,-0.586 z m -1.584916,0.8935 c -0.01375,0.0373 -0.02818,0.0743 -0.04186,0.1116 -0.08066,0.18119 -0.16106,0.36251 -0.241846,0.54364 0.08058,-0.003 0.144748,-0.008 0.227376,-0.0109 -0.0087,0.0963 0.05482,-0.63264 0.05633,-0.64439 z m 94.673808,29.99505 c 0.0626,0.004 0.130702,0.003 0.182933,0.0249 0.04981,0.0204 -0.0499,0.003 -0.182933,-0.0249 z m 11.120768,4.06693 c -0.0098,0 -0.01963,0 -0.02946,0.003 0.01222,0 0.02447,0.003 0.03669,0.003 -0.0024,-0.003 -0.0048,-0.003 -0.0072,-0.005 z" />
    </clipPath>
  </defs>
  <g
     inkscape:label="Capa 1"
     inkscape:groupmode="layer"
     id="layer1">
    <circle
       id="path859"
       style="fill:#ffffff;stroke:#3f3d56;stroke-width:12;stroke-miterlimit:4;stroke-dasharray:none"
       cx="-118.27318"
       cy="55.093063"
       r="0.1952403" />
    <circle
       id="path861"
       style="fill:#ffffff;stroke:#3f3d56;stroke-width:12;stroke-miterlimit:4;stroke-dasharray:none"
       cx="-118.27318"
       cy="55.093063"
       r="0.1952403" />
    <path
       style="fill:none;stroke:#121212;stroke-width:7;stroke-linecap:butt;stroke-linejoin:miter;stroke-miterlimit:4;stroke-dasharray:none;stroke-opacity:1"
       d="m -22.158845,81.487365 c 4.321103,-1.691394 8.50816,-3.725107 12.5090256,-6.075813 6.0152696,-3.534267 11.6553571,-7.832148 16.0830324,-13.223827 7.275776,-8.859876 10.870844,-20.09678 16.406294,-30.136357 2.767725,-5.019789 6.081346,-9.811849 10.384388,-13.598986 4.303043,-3.787137 9.671145,-6.527887 15.382603,-7.015559 6.333933,-0.540822 12.810534,1.797792 17.512635,6.075811 5.429029,4.939385 8.364372,12.063031 10.117462,19.190341 1.75309,7.127311 2.49311,14.482649 4.426395,21.563206 1.933285,7.080557 5.258675,14.091981 11.047481,18.604364 2.894403,2.256192 6.369006,3.819503 10.016799,4.221496 3.64779,0.401994 7.46105,-0.401447 10.49656,-2.463883 2.19147,-1.488961 3.92419,-3.575363 5.31285,-5.831719 1.38866,-2.256355 2.45494,-4.692824 3.52626,-7.116004 1.07132,-2.42318 2.15784,-4.852351 3.58251,-7.086147 1.42467,-2.233796 3.21032,-4.281064 5.44841,-5.698981 2.12573,-1.346736 4.6139,-2.087408 7.12564,-2.240935 2.51175,-0.153527 5.04498,0.270218 7.4133,1.120796 4.73665,1.701157 8.73176,5.051352 12.00379,8.875432 6.54406,7.648161 10.60263,17.373378 18.13236,24.05337 5.36349,4.758215 12.32321,7.684615 19.47536,8.188932 7.15216,0.504317 14.45367,-1.416486 20.4318,-5.374974 5.97812,-3.958488 10.59686,-9.930826 12.9246,-16.712365 2.32773,-6.781538 2.35044,-14.331444 0.0636,-21.126864"
       id="path2015"
       inkscape:path-effect="#path-effect2017"
       inkscape:original-d="m -22.158845,81.487365 c 5.147677,0.577958 8.524112,-3.751281 12.5090256,-6.075813 C -3.9067343,72.061419 2.82923,68.365981 6.433213,62.187725 17.278708,43.595447 21.715193,13.775196 48.606498,11.436823 c 7.341081,-0.638355 12.43716,0.577381 17.512635,6.075811 13.811099,14.962026 28.357571,57.566099 46.104697,61.115524 15.11327,3.022653 6.9387,-23.910962 17.87003,-25.732851 3.03246,-0.505412 30.8101,29.675587 44.67509,31.808663 19.46934,2.995281 37.01265,-29.731051 52.89531,-35.025271"
       clip-path="url(#clipPath3802)" />
    <path
       style="fill:none;stroke:#121212;stroke-width:7;stroke-linecap:butt;stroke-linejoin:miter;stroke-opacity:1;stroke-miterlimit:4;stroke-dasharray:none"
       d="m -41.101084,139.38628 c 14.631574,4.51434 29.765908,7.39708 45.032492,8.57762 4.1311455,0.31946 8.289199,0.51441 12.414101,0.1225 4.124902,-0.39192 8.233683,-1.38821 11.889147,-3.33911 3.986101,-2.12736 7.319867,-5.32818 10.106048,-8.88512 2.786181,-3.55694 5.060671,-7.48141 7.316065,-11.39649 2.255395,-3.91508 4.510539,-7.84903 7.263072,-11.43207 2.752533,-3.58304 6.037393,-6.82789 9.982687,-9.03 6.77018,-3.77886 15.096874,-4.188292 22.579196,-2.15606 7.482322,2.03223 14.188685,6.33513 20.008336,11.4583 11.63929,10.24633 20.07208,23.80997 32.10922,33.58585 5.29133,4.29732 11.18801,7.78437 17.15523,11.07942 3.15076,1.73982 6.36877,3.4599 8.98619,5.9304 1.30871,1.23525 2.45674,2.65507 3.28157,4.25451 0.82484,1.59945 1.31965,3.38373 1.31347,5.18332 -0.008,2.46375 -0.95514,4.8609 -2.35262,6.88998 -1.39749,2.02908 -3.22981,3.72143 -5.1528,5.26164 -8.53609,6.83696 -19.07619,10.91849 -29.87066,12.67583 -10.79447,1.75734 -21.86004,1.27029 -32.675212,-0.35482 -21.630335,-3.25022 -42.380174,-10.98075 -63.97398,-14.46541 -9.345759,-1.50815 -18.887315,-2.21217 -28.2857884,-1.07796 -9.3984736,1.1342 -18.6788216,4.17335 -26.3965206,9.65558 -4.978297,3.53631 -9.254524,8.05689 -12.509025,13.22382"
       id="path2372"
       inkscape:path-effect="#path-effect2374"
       inkscape:original-d="m -41.101084,139.38628 c 14.200222,5.60587 29.489943,8.57762 45.032492,8.57762 7.110919,0 18.077127,1.62593 24.303248,-3.21661 19.232213,-14.95839 5.462643,-42.62789 34.667872,-40.74368 16.352866,1.05502 63.762852,34.97043 74.696752,42.88809 6.09206,4.41149 10.36838,7.29141 17.15523,11.07942 8.64305,4.82402 18.8578,4.81509 13.58123,15.36823 -1.95652,3.91304 -4.40343,9.04964 -7.50542,12.15162 -34.15141,34.15141 -87.773878,-0.45979 -126.519852,-2.1444 -17.521121,-0.76179 -39.1292266,-1.0287 -54.682309,8.57762 -4.789821,2.95841 -7.411345,12.20429 -12.509025,13.22382"
       clip-path="url(#clipPath3778)" />
    <path
       style="fill:none;stroke:#121212;stroke-width:7;stroke-linecap:butt;stroke-linejoin:miter;stroke-opacity:1;stroke-miterlimit:4;stroke-dasharray:none"
       d="m -28.592057,251.61011 c 8.407991,3.1025 17.754224,3.6077 26.4476527,1.4296 11.3957239,-2.85515 21.1412463,-10.00044 30.9507303,-16.46483 4.904742,-3.2322 9.920086,-6.3397 15.294833,-8.70945 5.374748,-2.36974 11.14206,-3.99247 17.014365,-4.13258 11.032042,-0.26322 22.03099,5.02615 28.815239,13.72955 6.78425,8.7034 9.233886,20.59474 6.567431,31.30293 -1.140197,4.5789 -3.139474,8.88892 -5.003609,13.22383 -3.560333,8.27929 -6.664075,16.75489 -9.292421,25.37547"
       id="path2376"
       inkscape:path-effect="#path-effect2378"
       inkscape:original-d="m -28.592057,251.61011 c 8.815884,0.47653 17.823253,3.31815 26.4476527,1.4296 22.7346873,-4.9784 38.6583353,-28.51326 63.2599283,-29.30686 24.542162,-0.79168 41.545366,21.40882 35.38267,45.03248 -1.136097,4.35505 -3.861874,8.65688 -5.003609,13.22383 -2.461577,9.84631 -3.835694,18.09982 -9.292421,25.37547"
       clip-path="url(#clipPath3958)" />
    <path
       style="fill:none;stroke:#171718;stroke-width:7;stroke-linecap:butt;stroke-linejoin:miter;stroke-miterlimit:4;stroke-dasharray:none;stroke-opacity:1"
       d="m 152.96751,314.15524 c -4.8034,-14.46315 -8.97832,-29.13501 -12.50903,-43.96031 -1.64611,-6.91195 -3.15778,-13.89739 -3.49715,-20.99454 -0.33937,-7.09715 0.53977,-14.36079 3.49715,-20.82133 4.26425,-9.31547 12.40686,-16.18591 20.38489,-22.61342 7.97803,-6.4275 16.27759,-13.00848 21.07359,-22.06167 3.66531,-6.91883 5.02636,-15.05147 3.71079,-22.76989 -1.31557,-7.71842 -5.31778,-14.96909 -11.2162,-20.1182 -2.6844,-2.34339 -5.73649,-4.25639 -8.28353,-6.74839 -1.27352,-1.246 -2.41878,-2.63995 -3.25244,-4.21455 -0.83366,-1.57461 -1.34794,-3.3385 -1.33045,-5.12009 0.0283,-2.88642 1.48738,-5.66999 3.67104,-7.5578 2.18367,-1.88782 5.03492,-2.91598 7.91188,-3.15119 2.87697,-0.2352 5.78075,0.28863 8.50885,1.23188 2.7281,0.94324 5.29568,2.29817 7.78548,3.7587 8.6577,5.07867 16.49348,11.48483 23.58845,18.58484 8.47695,8.48296 15.93377,17.9844 22.15884,28.23465"
       id="path2380"
       inkscape:path-effect="#path-effect2382"
       inkscape:original-d="m 152.96751,314.15524 c -4.16968,-14.65345 -9.11025,-29.10911 -12.50903,-43.96031 -2.39612,-10.47 -8.40445,-30.60994 0,-41.81587 13.33823,-17.78431 36.42258,-16.13827 41.45848,-44.67509 2.37835,-13.47731 -0.47421,-31.02294 -7.50541,-42.88809 -1.90556,-3.21562 -13.78914,-12.39218 -12.86642,-16.08303 3.17277,-12.69109 20.38267,-10.80402 27.87725,-5.71841 8.18304,5.55278 16.51415,11.64659 23.58845,18.58484 8.19298,8.03542 17.00813,17.93322 22.15884,28.23465"
       clip-path="url(#clipPath3838)"
       transform="translate(18.584838,11.436823)" />
  </g>
</svg>
